<svg width="1440" height="1022" viewBox="0 0 1440 1022" fill="none" xmlns="http://www.w3.org/2000/svg">
<g clip-path="url(#clip0_1_720)">
<rect width="1440" height="1024" transform="translate(0 -2)" fill="#6D00DB"/>
<path d="M402.772 910.684C388.803 910.684 375.82 903.838 368.033 892.378L293.202 782.21C286.945 772.99 284.653 761.843 286.766 750.824C288.864 739.804 295.098 730.292 304.319 724.028L414.501 649.182C421.43 644.486 429.53 642 437.929 642C451.898 642 464.889 648.846 472.683 660.321L547.521 770.481C560.475 789.594 555.488 815.695 536.397 828.671L426.245 903.487C419.287 908.198 411.178 910.684 402.772 910.684ZM437.914 649.466C431.016 649.466 424.363 651.504 418.689 655.364L308.507 730.21C300.937 735.347 295.822 743.164 294.083 752.227C292.358 761.283 294.239 770.437 299.376 778.007L374.207 888.175C380.598 897.597 391.274 903.218 402.764 903.218C409.67 903.218 416.322 901.18 422.019 897.305L532.172 822.489C547.873 811.82 551.964 790.371 541.317 774.67L466.486 664.517C460.095 655.095 449.404 649.466 437.914 649.466Z" fill="#70BADB"/>
<g filter="url(#filter0_d_1_720)">
<path d="M242.79 78.9554L247.904 83.5135C248.733 84.2433 249.393 85.1121 249.845 86.0701C250.296 87.028 250.531 88.0561 250.534 89.0952C250.538 90.1342 250.312 91.1637 249.867 92.1243C249.423 93.0849 248.77 93.9577 247.946 94.6925C247.121 95.4272 246.142 96.0093 245.064 96.4053C243.987 96.8013 242.832 97.0034 241.666 97C240.5 96.9965 239.347 96.7875 238.272 96.385C237.197 95.9826 236.222 95.3946 235.403 94.655L233.7 93.1366C233.47 92.9385 233.286 92.7015 233.159 92.4394C233.033 92.1773 232.966 91.8954 232.963 91.6101C232.96 91.3248 233.021 91.0418 233.142 90.7777C233.263 90.5136 233.442 90.2736 233.668 90.0718C233.895 89.87 234.164 89.7103 234.46 89.6021C234.756 89.494 235.074 89.4395 235.394 89.4418C235.714 89.4442 236.03 89.5033 236.324 89.6158C236.618 89.7283 236.885 89.8919 237.107 90.097L238.814 91.6168C239.568 92.2834 240.589 92.6565 241.651 92.6543C242.714 92.652 243.732 92.2748 244.483 91.605C245.234 90.9353 245.657 90.0275 245.66 89.0805C245.662 88.1334 245.243 87.2242 244.495 86.5517L239.381 81.9937C238.828 81.5008 238.126 81.1624 237.361 81.0199C236.596 80.8774 235.8 80.937 235.072 81.1915C234.812 81.2832 234.571 81.3777 234.343 81.4722L233.597 81.7831C232.601 82.1842 231.834 82.3561 230.859 81.488C229.457 80.2389 229.82 79.0858 231.529 78.0358C233.231 76.9926 235.289 76.5134 237.346 76.6814C239.403 76.8494 241.329 77.6539 242.79 78.9554ZM233.131 70.3465L234.835 71.8649C235.274 72.2699 235.517 72.8126 235.512 73.3759C235.507 73.9393 235.254 74.4783 234.807 74.8769C234.36 75.2755 233.756 75.5017 233.123 75.5069C232.491 75.512 231.882 75.2957 231.427 74.9045L229.722 73.3861C229.352 73.044 228.909 72.7711 228.418 72.5833C227.928 72.3954 227.401 72.2965 226.868 72.2923C226.334 72.288 225.805 72.3785 225.311 72.5584C224.817 72.7383 224.369 73.0041 223.991 73.3403C223.614 73.6764 223.316 74.0762 223.113 74.5162C222.911 74.9563 222.81 75.4278 222.814 75.9033C222.818 76.3788 222.929 76.8488 223.14 77.2857C223.35 77.7227 223.656 78.1179 224.04 78.4484L229.153 83.0064C229.706 83.4993 230.408 83.8377 231.174 83.9802C231.939 84.1227 232.734 84.063 233.462 83.8086C233.722 83.7169 233.963 83.6223 234.192 83.5278L234.937 83.217C235.934 82.8159 236.702 82.644 237.676 83.512C239.077 84.7611 238.714 85.9142 237.006 86.9642C235.304 88.0074 233.246 88.4866 231.189 88.3186C229.132 88.1506 227.206 87.3461 225.745 86.0446L220.631 81.4866C219.801 80.7568 219.141 79.8879 218.69 78.93C218.238 77.972 218.004 76.9439 218 75.9049C217.996 74.8658 218.223 73.8363 218.667 72.8757C219.111 71.9151 219.765 71.0423 220.589 70.3076C221.413 69.5729 222.392 68.9907 223.47 68.5947C224.548 68.1987 225.703 67.9966 226.869 68.0001C228.034 68.0036 229.188 68.2125 230.263 68.615C231.337 69.0174 232.312 69.6068 233.131 70.3465Z" fill="white"/>
<path d="M244.755 74.903L249.869 70.345C250.688 69.6054 251.663 69.0174 252.737 68.615C253.812 68.2125 254.966 68.0035 256.131 68C257.297 67.9966 258.452 68.1987 259.53 68.5947C260.608 68.9907 261.587 69.5728 262.411 70.3075C263.235 71.0423 263.889 71.9151 264.333 72.8757C264.777 73.8363 265.004 74.8658 265 75.9048C264.996 76.9439 264.762 77.972 264.31 78.9299C263.859 79.8879 263.199 80.7567 262.369 81.4865L260.666 83.0049C260.443 83.2102 260.177 83.374 259.883 83.4868C259.589 83.5995 259.273 83.6589 258.953 83.6615C258.633 83.6641 258.315 83.6099 258.019 83.502C257.723 83.3941 257.453 83.2346 257.227 83.033C257.001 82.8313 256.821 82.5915 256.7 82.3275C256.579 82.0635 256.518 81.7806 256.52 81.4953C256.523 81.21 256.589 80.928 256.715 80.6658C256.842 80.4036 257.025 80.1664 257.255 79.9681L258.96 78.4469C259.708 77.7742 260.127 76.8648 260.124 75.9178C260.122 74.9707 259.699 74.0631 258.947 73.3935C258.196 72.724 257.177 72.347 256.115 72.345C255.052 72.3431 265.065 78.2631 264.31 78.9299L248.164 77.9412C247.611 78.4339 247.231 79.0596 247.071 79.7418C246.911 80.4239 246.978 81.1328 247.264 81.7816C247.367 82.0137 247.473 82.2285 247.579 82.4319L247.928 83.0966C248.378 83.9847 248.57 84.668 247.597 85.5375C246.195 86.7866 244.901 86.4628 243.723 84.9401C242.553 83.4231 242.015 81.5888 242.204 79.7554C242.392 77.922 243.295 76.2052 244.755 74.903ZM235.096 83.512L236.8 81.9936C237.254 81.602 239.867 79.455 240.5 79.4596C241.132 79.4642 240.856 80.4937 241.303 80.8919C241.75 81.2901 242.904 81.7611 242.91 82.3245C242.916 82.8878 240.649 84.625 240.21 85.0304L238.507 86.5502C238.123 86.8805 237.817 87.2755 237.606 87.7124C237.395 88.1492 237.284 88.6191 237.28 89.0946C237.275 89.5701 237.376 90.0417 237.578 90.4819C237.78 90.922 238.078 91.3219 238.455 91.6583C238.832 91.9946 239.281 92.2606 239.775 92.4408C240.268 92.621 240.797 92.7117 241.331 92.7077C241.864 92.7037 242.392 92.6051 242.882 92.4175C243.372 92.23 243.816 91.9573 244.186 91.6153L249.3 87.0573C249.853 86.5646 250.233 85.9389 250.393 85.2567C250.552 84.5746 250.486 83.8657 250.2 83.2169C250.097 82.9849 249.991 82.77 249.885 82.5666L249.536 81.9019C249.086 81.0138 248.893 80.3291 249.867 79.461C251.269 78.212 252.562 78.5357 253.741 80.0584C254.911 81.5754 255.449 83.4098 255.26 85.2432C255.072 87.0766 254.169 88.7933 252.709 90.0955L247.595 94.6535C246.776 95.3932 245.801 95.9811 244.727 96.3836C243.652 96.786 242.498 96.995 241.333 96.9985C240.167 97.002 239.012 96.7999 237.934 96.4039C236.856 96.0078 235.877 95.4257 235.053 94.691C234.229 93.9563 233.575 93.0835 233.131 92.1228C232.687 91.1622 232.46 90.1327 232.464 89.0937C232.468 88.0547 232.702 87.0266 233.154 86.0686C233.605 85.1107 234.267 84.2418 235.096 83.512Z" fill="white"/>
</g>
<g filter="url(#filter1_d_1_720)">
<path d="M99.96 97.48C97.7733 97.48 95.76 96.9733 93.92 95.96C92.08 94.9467 90.6 93.4533 89.48 91.48C88.3867 89.48 87.84 87.0267 87.84 84.12C87.84 81.24 88.4 78.7867 89.52 76.76C90.6667 74.7067 92.1733 73.1467 94.04 72.08C95.9333 70.9867 97.9733 70.44 100.16 70.44C101.84 70.44 103.347 70.7867 104.68 71.48C106.013 72.1467 107.12 72.9333 108 73.84L104.88 77.6C104.213 76.9867 103.507 76.4933 102.76 76.12C102.04 75.72 101.213 75.52 100.28 75.52C99.1067 75.52 98.0267 75.8533 97.04 76.52C96.08 77.1867 95.3067 78.1467 94.72 79.4C94.16 80.6533 93.88 82.16 93.88 83.92C93.88 86.5867 94.4533 88.6667 95.6 90.16C96.7467 91.6533 98.28 92.4 100.2 92.4C101.267 92.4 102.213 92.16 103.04 91.68C103.893 91.2 104.64 90.6267 105.28 89.96L108.4 93.64C106.213 96.2 103.4 97.48 99.96 97.48ZM111.001 97V68.96H116.881V75.84L116.601 79.4C117.348 78.7333 118.215 78.12 119.201 77.56C120.215 76.9733 121.388 76.68 122.721 76.68C124.881 76.68 126.441 77.4 127.401 78.84C128.388 80.2533 128.881 82.2 128.881 84.68V97H123.001V85.44C123.001 84 122.801 83.0133 122.401 82.48C122.028 81.9467 121.415 81.68 120.561 81.68C119.815 81.68 119.175 81.8533 118.641 82.2C118.108 82.52 117.521 82.9867 116.881 83.6V97H111.001ZM137.973 97.48C136.159 97.48 134.719 96.9067 133.653 95.76C132.586 94.5867 132.053 93.16 132.053 91.48C132.053 89.4 132.933 87.7733 134.693 86.6C136.453 85.4267 139.293 84.64 143.213 84.24C143.159 83.36 142.893 82.6667 142.413 82.16C141.959 81.6267 141.186 81.36 140.093 81.36C139.266 81.36 138.426 81.52 137.573 81.84C136.719 82.16 135.813 82.6 134.853 83.16L132.733 79.28C133.986 78.5067 135.319 77.88 136.733 77.4C138.173 76.92 139.666 76.68 141.213 76.68C143.746 76.68 145.693 77.4133 147.053 78.88C148.413 80.3467 149.093 82.6 149.093 85.64V97H144.293L143.893 94.96H143.733C142.906 95.7067 142.013 96.32 141.053 96.8C140.119 97.2533 139.093 97.48 137.973 97.48ZM139.973 92.92C140.639 92.92 141.213 92.7733 141.693 92.48C142.199 92.16 142.706 91.7467 143.213 91.24V87.76C141.133 88.0267 139.693 88.4533 138.893 89.04C138.093 89.6 137.693 90.2667 137.693 91.04C137.693 91.68 137.893 92.16 138.293 92.48C138.719 92.7733 139.279 92.92 139.973 92.92ZM160.123 97.48C157.67 97.48 155.91 96.7733 154.843 95.36C153.803 93.9467 153.283 92.0933 153.283 89.8V81.76H150.563V77.4L153.603 77.16L154.283 71.88H159.163V77.16H163.923V81.76H159.163V89.72C159.163 90.84 159.39 91.6533 159.843 92.16C160.323 92.64 160.95 92.88 161.723 92.88C162.043 92.88 162.363 92.84 162.683 92.76C163.03 92.68 163.337 92.5867 163.603 92.48L164.523 96.76C164.017 96.92 163.39 97.08 162.643 97.24C161.923 97.4 161.083 97.48 160.123 97.48ZM166.916 97V77.16H172.796V97H166.916ZM169.836 74.24C168.849 74.24 168.049 73.96 167.436 73.4C166.823 72.84 166.516 72.0933 166.516 71.16C166.516 70.2267 166.823 69.48 167.436 68.92C168.049 68.36 168.849 68.08 169.836 68.08C170.823 68.08 171.623 68.36 172.236 68.92C172.849 69.48 173.156 70.2267 173.156 71.16C173.156 72.0933 172.849 72.84 172.236 73.4C171.623 73.96 170.823 74.24 169.836 74.24ZM178.091 97V81.76H175.451V77.4L178.091 77.2V76.12C178.091 74.7067 178.331 73.4267 178.811 72.28C179.291 71.1333 180.064 70.2133 181.131 69.52C182.197 68.8267 183.624 68.48 185.411 68.48C186.237 68.48 186.997 68.56 187.691 68.72C188.384 68.88 188.944 69.04 189.371 69.2L188.291 73.52C187.944 73.3867 187.597 73.2933 187.251 73.24C186.904 73.16 186.571 73.12 186.251 73.12C185.531 73.12 184.971 73.3467 184.571 73.8C184.171 74.2267 183.971 74.9467 183.971 75.96V77.16H187.531V81.76H183.971V97H178.091ZM192.043 104.76C191.457 104.76 190.937 104.72 190.483 104.64C190.057 104.56 189.643 104.467 189.243 104.36L190.283 99.88C190.47 99.9067 190.683 99.9467 190.923 100C191.163 100.08 191.39 100.12 191.603 100.12C192.59 100.12 193.35 99.88 193.883 99.4C194.417 98.92 194.817 98.2933 195.083 97.52L195.363 96.48L187.723 77.16H193.643L196.483 85.68C196.777 86.5867 197.043 87.5067 197.283 88.44C197.523 89.3733 197.777 90.3333 198.043 91.32H198.203C198.417 90.3867 198.63 89.4533 198.843 88.52C199.083 87.56 199.323 86.6133 199.563 85.68L201.963 77.16H207.603L200.723 97.2C200.11 98.8533 199.43 100.24 198.683 101.36C197.937 102.507 197.03 103.36 195.963 103.92C194.923 104.48 193.617 104.76 192.043 104.76Z" fill="white"/>
</g>
<path d="M541.92 119.242C533.777 116.448 527.156 119.315 521.738 133.491C516.314 147.671 506.781 160.537 509.86 168.345C512.938 176.157 526.76 182.362 539.448 188.321C552.133 194.277 568.858 201.332 573.791 203.461C585.409 208.473 590.418 208.311 596.038 199.98C599.345 195.077 610.591 164.089 611.927 160.9C615.257 152.95 610.621 149.665 599.694 144.158C589.215 138.878 549.527 121.85 541.92 119.242Z" fill="#F2AC30"/>
<path d="M556.901 169.937C556.848 169.914 556.798 169.889 556.747 169.866C551.281 167.314 548.885 160.678 547.407 155.179C544.679 145.016 537.875 123.634 535.829 119.311C535.65 118.933 535.811 118.482 536.19 118.303C536.567 118.123 537.018 118.287 537.197 118.664C539.269 123.044 546.126 144.575 548.87 154.786C550.261 159.967 552.487 166.207 557.387 168.495C560.906 170.102 565.554 169.616 571.253 166.968C586.937 159.682 609.012 151.544 609.232 151.462C609.627 151.319 610.062 151.521 610.203 151.911C610.348 152.303 610.147 152.738 609.754 152.882C609.534 152.964 587.518 161.08 571.891 168.339C565.763 171.187 560.855 171.711 556.901 169.937Z" fill="black"/>
<path d="M509.55 169.034C509.296 168.921 509.115 168.67 509.103 168.375C509.087 167.958 509.41 167.605 509.829 167.589C512.024 167.501 525.051 162.969 534.561 159.66C542.44 156.919 546.944 155.362 547.901 155.241C548.316 155.187 548.694 155.48 548.748 155.896C548.801 156.309 548.508 156.689 548.092 156.743C547.248 156.851 541.326 158.91 535.058 161.091C522.17 165.573 512.133 169.011 509.89 169.101C509.769 169.106 509.654 169.081 509.55 169.034Z" fill="black"/>
<path d="M586.561 206.268C586.325 206.162 586.149 205.938 586.118 205.66C586.014 204.715 583.372 196.838 580.816 189.222C577.443 179.169 573.955 168.773 573.66 166.682C573.601 166.269 573.89 165.885 574.302 165.827C574.719 165.769 575.098 166.06 575.156 166.469C575.432 168.424 579.054 179.218 582.249 188.742C585.504 198.443 587.505 204.442 587.62 205.497C587.666 205.912 587.366 206.285 586.949 206.331C586.815 206.346 586.681 206.322 586.561 206.268Z" fill="black"/>
<path d="M1083.01 756.655C1092.89 749.874 1125.38 730.658 1142.28 720.278C1159.18 709.895 1178.18 700.101 1181.21 700.349C1184.25 700.594 1168.47 747.569 1160.16 766.917C1156.77 771.626 1148.54 768.156 1148.54 768.156C1140.52 786.062 1127.84 796.261 1125.64 797.591C1123.44 798.92 1116.95 784.638 1113.55 775.942C1110.15 767.248 1111.09 764.977 1102.57 764.081C1076.09 761.287 1083.01 756.655 1083.01 756.655Z" fill="#70BADB"/>
<path d="M1125.93 798.395C1125.58 798.523 1125.17 798.404 1124.94 798.082C1124.67 797.694 1124.76 797.16 1125.15 796.89C1126.18 796.028 1127.98 787.454 1129.3 781.193C1130.71 774.466 1132.05 768.109 1133.27 765.509C1135.58 760.608 1160.6 725.988 1171.25 711.376L1112.12 763.626C1111.77 763.937 1111.23 763.905 1110.92 763.553C1110.6 763.198 1110.64 762.658 1110.99 762.345L1176.06 704.846C1176.4 704.541 1176.92 704.563 1177.24 704.894C1177.56 705.224 1177.56 705.747 1177.24 706.078C1175.35 708.166 1137.23 761.113 1134.82 766.238C1133.68 768.659 1132.3 775.211 1130.97 781.547C1128.68 792.43 1127.53 797.304 1126.13 798.291C1126.07 798.334 1126 798.369 1125.93 798.395Z" fill="black"/>
<path d="M1150.6 769.397C1150.43 769.457 1150.25 769.467 1150.07 769.414L1149.63 769.284C1143.48 767.48 1135.83 765.225 1134.67 766.461C1134.34 766.803 1133.8 766.815 1133.46 766.49C1133.11 766.164 1133.1 765.623 1133.43 765.279C1135.22 763.396 1140.66 764.868 1150.11 767.641L1150.55 767.769C1151 767.902 1151.26 768.377 1151.13 768.831C1151.05 769.105 1150.85 769.308 1150.6 769.397Z" fill="black"/>
<path d="M314.118 492.313L250.114 516.862C238.986 521.13 234.156 533.96 239.275 545.269L252.28 574.013C257.017 584.49 269.219 589.45 279.569 585.299L325.612 566.839C330.784 573.098 335.236 579.411 339.738 577.295C342.927 575.697 341.659 568.142 340.008 561.016C349.49 556.688 354.314 545.342 350.764 534.997L340.765 505.812C336.831 494.334 324.886 488.183 314.118 492.313Z" fill="white"/>
<path d="M339.733 578.246C335.197 579.986 331.147 575.014 326.459 569.256C326.091 568.804 325.719 568.347 325.343 567.89L279.592 586.23C268.721 590.4 256.374 585.192 251.482 574.373L238.478 545.629C235.848 539.817 235.672 533.239 237.997 527.582C240.2 522.217 244.394 518.12 249.801 516.046L313.806 491.497C318.987 489.51 324.648 489.728 329.751 492.113C335.232 494.674 339.548 499.564 341.592 505.527L351.591 534.712C355.165 545.135 350.529 556.75 341.015 561.503C342.742 569.113 343.743 576.264 340.128 578.076C339.986 578.143 339.859 578.198 339.733 578.246ZM325.298 566.023C325.649 565.889 326.045 565.993 326.285 566.283C326.802 566.907 327.312 567.534 327.817 568.151C332.186 573.516 335.981 578.112 339.366 576.503C342.351 575.007 340.03 564.986 339.158 561.213C339.065 560.809 339.269 560.393 339.646 560.22C348.784 556.05 353.307 545.095 349.939 535.28L339.94 506.095C338.051 500.579 334.068 496.059 329.014 493.697C324.347 491.516 319.171 491.314 314.436 493.13L250.432 517.679C245.478 519.579 241.637 523.331 239.617 528.247C237.476 533.461 237.643 539.532 240.075 544.91L253.079 573.654C257.515 583.464 269.129 588.372 278.97 584.598L279.246 584.488L325.289 566.029C325.289 566.029 325.293 566.025 325.298 566.023Z" fill="black"/>
<path d="M276.119 547.786C277.48 551.334 275.773 555.289 272.308 556.618C268.842 557.947 264.929 556.148 263.568 552.6C262.206 549.051 263.913 545.096 267.379 543.766C270.844 542.439 274.757 544.237 276.119 547.786Z" fill="#70BADB"/>
<path d="M300.925 538.272C302.286 541.82 300.579 545.774 297.113 547.104C293.648 548.433 289.733 546.634 288.372 543.086C287.011 539.537 288.719 535.581 292.184 534.252C295.651 532.925 299.564 534.722 300.925 538.272Z" fill="#70BADB"/>
<path d="M325.732 528.757C327.093 532.305 325.386 536.26 321.921 537.589C318.453 538.919 314.54 537.12 313.179 533.572C311.818 530.022 313.524 526.067 316.992 524.737C320.459 523.409 324.37 525.208 325.732 528.757Z" fill="#70BADB"/>
<g opacity="0.5">
<path d="M1340.52 542.103C1329.85 548.82 1316.68 545.264 1306.15 532.832L1223.89 435.673C1216.97 427.508 1213.96 419.043 1215.18 411.195C1216.79 400.706 1226.09 392.875 1240.16 390.327L1365.41 367.657C1377.76 365.422 1387.86 368.087 1393.84 375.153C1399.82 382.219 1400.79 392.616 1396.55 404.425L1353.55 524.248C1350.62 532.389 1346.12 538.576 1340.52 542.103ZM1229.31 400.719C1224.74 403.594 1221.96 407.538 1221.25 412.128C1220.33 418.08 1222.93 425.029 1228.58 431.689L1310.83 528.847C1319.36 538.919 1329.24 541.93 1337.23 536.895C1341.66 534.108 1345.3 529.011 1347.75 522.163L1390.75 402.34C1394.21 392.695 1393.64 384.44 1389.14 379.125C1384.63 373.805 1376.59 371.879 1366.5 373.707L1241.24 396.377C1236.55 397.229 1232.54 398.687 1229.31 400.719Z" fill="#F2AC30"/>
</g>
<g opacity="0.5">
<path d="M1327.75 522C1321.17 522 1314.15 519.979 1306.89 515.987L1174.58 443.233C1161.54 436.067 1154.24 426.069 1154.01 415.087C1153.78 404.104 1160.66 393.815 1173.39 386.109L1302.56 307.911C1310.13 303.328 1317.49 301 1324.45 301C1341.13 301 1352.19 314.515 1352.62 335.436L1355.78 486.382C1356.02 498.313 1352.86 507.996 1346.61 514.367C1341.71 519.358 1335.2 522 1327.75 522ZM1324.44 308.297C1318.92 308.297 1312.66 310.319 1306.32 314.15L1177.15 392.348C1166.75 398.646 1161.12 406.665 1161.3 414.933C1161.47 423.201 1167.43 430.98 1178.09 436.84L1310.4 509.594C1322.85 516.432 1334.48 516.308 1341.39 509.259C1346.23 504.311 1348.68 496.452 1348.47 486.528L1345.32 335.582C1344.97 318.754 1336.97 308.297 1324.44 308.297Z" fill="#F2C87E"/>
</g>
</g>
<defs>
<filter id="filter0_d_1_720" x="214" y="68" width="55" height="43" filterUnits="userSpaceOnUse" color-interpolation-filters="sRGB">
<feFlood flood-opacity="0" result="BackgroundImageFix"/>
<feColorMatrix in="SourceAlpha" type="matrix" values="0 0 0 0 0 0 0 0 0 0 0 0 0 0 0 0 0 0 127 0" result="hardAlpha"/>
<feOffset dy="10"/>
<feGaussianBlur stdDeviation="2"/>
<feComposite in2="hardAlpha" operator="out"/>
<feColorMatrix type="matrix" values="0 0 0 0 0 0 0 0 0 0 0 0 0 0 0 0 0 0 0.25 0"/>
<feBlend mode="normal" in2="BackgroundImageFix" result="effect1_dropShadow_1_720"/>
<feBlend mode="normal" in="SourceGraphic" in2="effect1_dropShadow_1_720" result="shape"/>
</filter>
<filter id="filter1_d_1_720" x="83.84" y="68.08" width="127.763" height="44.6801" filterUnits="userSpaceOnUse" color-interpolation-filters="sRGB">
<feFlood flood-opacity="0" result="BackgroundImageFix"/>
<feColorMatrix in="SourceAlpha" type="matrix" values="0 0 0 0 0 0 0 0 0 0 0 0 0 0 0 0 0 0 127 0" result="hardAlpha"/>
<feOffset dy="4"/>
<feGaussianBlur stdDeviation="2"/>
<feComposite in2="hardAlpha" operator="out"/>
<feColorMatrix type="matrix" values="0 0 0 0 0 0 0 0 0 0 0 0 0 0 0 0 0 0 0.25 0"/>
<feBlend mode="normal" in2="BackgroundImageFix" result="effect1_dropShadow_1_720"/>
<feBlend mode="normal" in="SourceGraphic" in2="effect1_dropShadow_1_720" result="shape"/>
</filter>
<clipPath id="clip0_1_720">
<rect width="1440" height="1024" fill="white" transform="translate(0 -2)"/>
</clipPath>
</defs>
</svg>
