<svg width="720" height="1022" viewBox="0 0 720 1022" fill="none" xmlns="http://www.w3.org/2000/svg">
<rect width="720" height="1024" transform="translate(0 -2)" fill="#6D00DB"/>
<path d="M672.731 623.292C672.467 623.292 672.195 623.264 671.919 623.209C670.407 622.957 669.232 621.985 668.627 620.472C667.888 618.629 668.153 616.303 669.269 614.816C670.132 613.073 672.361 611.242 674.757 610.18C674.269 609.554 673.673 609.069 672.97 608.788C671.354 608.141 668.425 608.014 666.183 609.053C665.017 609.594 664.263 610.355 663.944 611.314C663.843 611.615 663.519 611.779 663.215 611.677C662.914 611.576 662.751 611.25 662.851 610.949C663.269 609.695 664.255 608.677 665.701 608.007C667.923 606.976 671.235 606.85 673.397 607.718C674.406 608.121 675.229 608.835 675.868 609.746C676.281 609.609 676.694 609.496 677.101 609.415C679.546 608.597 681.659 608.645 683.309 609.579C685.083 610.583 686.319 612.612 686.986 615.61C687.055 615.921 686.859 616.227 686.548 616.298C686.236 616.365 685.93 616.171 685.861 615.86C685.268 613.194 684.218 611.417 682.741 610.58C681.382 609.811 679.585 609.794 677.394 610.525C677.088 610.586 676.78 610.667 676.468 610.763C677.666 613.186 677.86 616.467 677.066 619.137C676.276 621.794 674.689 623.29 672.731 623.292ZM675.382 611.166C673.148 612.124 671.045 613.815 670.243 615.417C669.315 616.669 669.107 618.577 669.693 620.043C670.012 620.838 670.693 621.838 672.124 622.076C674.58 622.558 675.62 619.954 675.961 618.81C676.692 616.353 676.485 613.307 675.382 611.166Z" fill="black"/>
<path d="M194.771 656.549C191.947 656.549 189.316 655.429 187.311 653.36C186.421 652.356 185.747 651.023 185.341 649.579C183.851 649.45 182.42 648.936 181.157 648.063C178.955 646.538 177.469 644.043 177.081 641.22C176.642 637.721 177.849 635.568 179.739 632.68C179.913 632.415 180.271 632.341 180.536 632.514C180.802 632.688 180.875 633.045 180.703 633.311C178.905 636.054 177.824 637.896 178.222 641.069C178.565 643.567 179.875 645.774 181.812 647.115C182.803 647.801 183.912 648.231 185.071 648.39C184.828 646.994 184.832 645.555 185.126 644.252C185.68 641.792 187.141 639.993 189.348 639.051C190.685 638.482 192.093 638.634 193.118 639.457C194.295 640.401 194.792 642.06 194.449 643.893C193.859 646.303 191.137 648.65 188.109 649.384C187.584 649.504 187.056 649.575 186.535 649.602C186.896 650.74 187.448 651.782 188.154 652.579C190.035 654.519 192.572 655.513 195.258 655.386C198.092 655.241 200.723 653.884 202.479 651.66C202.676 651.411 203.039 651.369 203.288 651.565C203.537 651.762 203.58 652.123 203.384 652.373C201.422 654.857 198.483 656.374 195.318 656.535C195.135 656.545 194.952 656.549 194.771 656.549ZM190.964 639.861C190.589 639.861 190.195 639.944 189.8 640.113C187.458 641.111 186.576 643.053 186.248 644.506C185.967 645.753 185.981 647.138 186.244 648.46C186.774 648.451 187.312 648.386 187.847 648.264C190.437 647.637 192.845 645.609 193.325 643.651C193.583 642.274 193.239 641.031 192.398 640.356C191.989 640.028 191.495 639.861 190.964 639.861Z" fill="black"/>
<path d="M199.448 326.628C199.132 326.628 198.874 326.372 198.873 326.055C198.851 321.142 200.748 316.223 203.823 313.217C205.997 311.093 208.704 309.961 211.677 309.931C214.008 306.275 218.873 304.024 223.144 304.732C225.649 305.148 227.843 306.518 229.963 307.843C233.885 310.293 237.273 312.409 241.629 307.813C241.847 307.581 242.212 307.571 242.443 307.791C242.675 308.009 242.684 308.374 242.465 308.605C237.463 313.886 233.341 311.312 229.353 308.819C227.329 307.554 225.235 306.246 222.956 305.868C219.397 305.28 215.246 307.076 213.039 309.992C217.638 310.448 219.985 313.352 220.652 316.039C221.273 318.542 220.533 321.028 218.895 321.953C217.948 322.487 215.921 322.944 212.988 320C210.368 317.371 209.673 314.154 211.042 311.108C208.607 311.274 206.454 312.258 204.63 314.041C201.771 316.838 200.007 321.439 200.026 326.052C200.027 326.369 199.771 326.628 199.453 326.629C199.451 326.628 199.448 326.628 199.448 326.628ZM212.329 311.094C212.308 311.133 212.288 311.172 212.267 311.213C210.858 313.947 211.402 316.778 213.801 319.186C215.55 320.942 217.201 321.585 218.327 320.949C219.505 320.285 220.024 318.293 219.533 316.316C219.242 315.143 217.869 311.345 212.329 311.094Z" fill="black"/>
<path d="M672.678 488.003C668.646 488.003 665.51 485.515 664.69 481.666C663.949 478.184 665.086 475.855 666.17 474.515C667.728 472.588 670.239 471.438 672.886 471.438C676.579 471.438 679.68 473.556 681.181 477.102C681.851 478.739 681.746 480.702 680.891 482.636C679.912 484.846 678.072 486.668 676.086 487.389C674.967 487.797 673.82 488.003 672.678 488.003ZM672.886 472.588C670.584 472.588 668.408 473.579 667.064 475.238C665.736 476.88 665.304 479.021 665.816 481.426C666.517 484.722 669.211 486.851 672.678 486.851C673.685 486.851 674.699 486.668 675.692 486.307C677.392 485.688 678.981 484.102 679.838 482.168C680.566 480.523 680.665 478.881 680.117 477.542C678.806 474.443 676.102 472.588 672.886 472.588Z" fill="#F2AC30"/>
<path d="M96.4588 645.346C92.427 645.346 89.2908 642.858 88.4711 639.008C87.7285 635.525 88.866 633.196 89.9517 631.856C91.5105 629.929 94.0215 628.779 96.6671 628.779C100.36 628.779 103.461 630.896 104.962 634.442C105.632 636.081 105.529 638.044 104.672 639.98C103.693 642.19 101.853 644.01 99.8677 644.732C98.7475 645.139 97.602 645.346 96.4588 645.346ZM96.6671 629.93C94.3646 629.93 92.1886 630.92 90.8462 632.58C89.5165 634.223 89.0848 636.362 89.5982 638.767C90.2994 642.063 92.9934 644.195 96.4599 644.195C97.4673 644.195 98.4815 644.011 99.474 643.65C101.174 643.032 102.763 641.446 103.62 639.513C104.349 637.867 104.448 636.224 103.9 634.884C102.587 631.786 99.8827 629.93 96.6671 629.93Z" fill="#70BADB"/>
<path d="M660.049 565.813C657.895 565.813 655.893 564.757 654.692 562.99L643.153 546.001C642.188 544.579 641.834 542.861 642.16 541.161C642.484 539.462 643.445 537.995 644.867 537.029L661.858 525.488C662.926 524.764 664.175 524.38 665.47 524.38C667.624 524.38 669.628 525.436 670.83 527.205L682.37 544.193C684.368 547.14 683.598 551.165 680.655 553.166L663.669 564.703C662.596 565.429 661.345 565.813 660.049 565.813ZM665.468 525.531C664.404 525.531 663.378 525.846 662.503 526.441L645.513 537.983C644.345 538.775 643.557 539.98 643.289 541.378C643.023 542.774 643.313 544.186 644.105 545.353L655.644 562.341C656.63 563.794 658.276 564.661 660.048 564.661C661.113 564.661 662.139 564.347 663.017 563.75L680.003 552.212C682.424 550.567 683.055 547.26 681.413 544.838L669.874 527.852C668.888 526.4 667.24 525.531 665.468 525.531Z" fill="#70BADB"/>
<path d="M153.794 715.355C151.435 715.355 149.703 713.479 149.275 710.46L145.936 686.874C145.655 684.891 146.023 683.251 146.998 682.129C148.299 680.629 150.552 680.316 153.034 681.315L175.128 690.214C177.306 691.091 178.64 692.52 178.883 694.235C179.125 695.95 178.242 697.694 176.393 699.141L157.638 713.828C156.362 714.825 155.033 715.355 153.794 715.355ZM150.28 681.879C149.27 681.879 148.436 682.226 147.866 682.882C147.127 683.733 146.846 685.093 147.076 686.71L150.415 710.297C150.761 712.742 152.024 714.203 153.793 714.203C154.771 714.203 155.856 713.759 156.928 712.919L175.683 698.232C177.192 697.05 177.925 695.686 177.742 694.395C177.559 693.103 176.478 691.997 174.696 691.28L152.602 682.381C151.774 682.049 150.994 681.879 150.28 681.879Z" fill="#F2AC30"/>
<path d="M332.796 321.299C331.758 321.299 330.65 320.98 329.506 320.35L308.632 308.872C306.574 307.742 305.422 306.164 305.385 304.432C305.349 302.699 306.435 301.076 308.443 299.86L328.822 287.523C330.017 286.8 331.179 286.432 332.276 286.432C334.908 286.432 336.653 288.565 336.721 291.865L337.218 315.68C337.257 317.562 336.758 319.09 335.772 320.095C335 320.882 333.972 321.299 332.796 321.299ZM332.275 287.584C331.403 287.584 330.415 287.903 329.416 288.507L309.037 300.844C307.396 301.838 306.508 303.103 306.535 304.407C306.563 305.712 307.503 306.939 309.186 307.864L330.059 319.342C332.024 320.421 333.859 320.401 334.948 319.289C335.712 318.508 336.098 317.268 336.066 315.703L335.568 291.888C335.513 289.233 334.251 287.584 332.275 287.584Z" fill="#F2C87E"/>
<path d="M414.736 745.26C414.726 745.26 414.725 745.26 414.716 745.26C367.094 745.259 325.769 741.682 298.353 735.188C267.151 727.798 246.369 714.987 236.585 697.108C228.315 682 227.934 663.444 235.454 641.954C235.737 641.147 236.027 640.305 236.33 639.428C242.202 622.412 253.131 590.739 305.125 527.632C342.93 481.749 391.449 456.479 441.745 456.479C460.301 456.479 478.749 459.898 496.574 466.638C541.01 483.444 578.169 510.459 604.033 544.762C625.8 573.632 639.368 607.388 642.237 639.811C645.336 674.845 635.37 703.704 616.228 715.128C581.349 735.941 489.897 745.26 414.736 745.26ZM441.745 457.63C391.799 457.63 343.595 482.751 306.013 528.365C254.151 591.311 243.265 622.855 237.417 639.803C237.113 640.683 236.823 641.526 236.54 642.334C229.131 663.504 229.486 681.746 237.593 696.557C247.216 714.137 267.746 726.756 298.618 734.069C325.95 740.542 367.181 744.109 414.716 744.11C414.721 744.11 414.731 744.11 414.736 744.11C489.742 744.11 580.944 734.843 615.638 714.138C634.397 702.943 644.15 674.502 641.089 639.913C636.131 583.884 595.203 505.168 496.166 467.715C478.472 461.021 460.162 457.63 441.745 457.63Z" fill="black"/>
<mask id="mask0_1_282" style="mask-type:luminance" maskUnits="userSpaceOnUse" x="33" y="346" width="297" height="266">
<path d="M39.2119 454.848C33.4141 480.175 25.8985 550.601 51.7276 577.68C77.5567 604.759 97.1366 608.509 141.295 609.341C185.454 610.174 207.535 612.67 240.028 610.588C272.523 608.508 323.346 607.36 328.763 533.937C338.546 401.313 238.932 340.12 158.946 347.203C78.9601 354.285 50.1491 407.07 39.2119 454.848Z" fill="white"/>
</mask>
<g mask="url(#mask0_1_282)">
<path d="M188.576 410.211C190.866 413.96 192.738 420.626 193.783 427.916C194.514 433.019 195.867 433.541 200.864 435.831C205.865 438.122 207.011 442.496 204.302 444.996C200.444 448.557 200.449 446.611 199.928 450.621C199.58 453.294 200.305 455.43 196.707 454.278C195.295 453.826 192.374 452.088 191.958 452.408C190.712 453.37 191.095 457.013 195.844 459.747C197.575 460.744 199.01 460.61 197.48 468.535C196.147 475.437 187.794 476.502 179.514 474.939C171.234 473.378 172.953 479.626 169.672 488.531C166.39 497.437 165.922 502.436 170.452 506.185C174.984 509.935 178.577 527.9 178.107 532.275C177.638 536.648 162.015 545.709 148.737 531.024C141.551 521.025 133.427 501.81 133.427 501.81C133.427 501.81 141.862 490.094 141.706 478.689C141.55 467.286 136.707 424.323 152.485 412.138C168.267 399.952 187.013 407.192 188.576 410.211Z" fill="white"/>
<path d="M165.038 539.644C160.806 539.644 154.468 538.215 148.314 531.408C141.132 521.421 132.982 502.225 132.9 502.033C132.822 501.847 132.846 501.635 132.963 501.472C133.046 501.356 141.286 489.773 141.134 478.695C141.113 477.12 140.998 474.885 140.867 472.298C140.038 456.087 138.315 422.357 152.138 411.681C159.571 405.941 167.335 404.735 172.54 404.735C180.996 404.735 187.989 407.822 189.09 409.946C191.326 413.605 193.253 420.137 194.356 427.834C195.027 432.525 196.138 433.034 200.814 435.174L201.108 435.309C204.004 436.636 205.877 438.728 206.246 441.048C206.51 442.701 205.96 444.254 204.697 445.419C203.327 446.684 202.422 447.277 201.822 447.671C200.828 448.323 200.81 448.335 200.502 450.694C200.439 451.183 200.413 451.651 200.388 452.084C200.284 453.901 200.114 455.973 196.535 454.825C195.938 454.634 195.117 454.242 194.322 453.86C193.629 453.529 192.614 453.043 192.214 452.956C192.006 453.196 191.902 453.615 191.936 454.113C192.029 455.479 193.18 457.546 196.134 459.246C196.286 459.334 196.437 459.413 196.583 459.489C198.458 460.471 199.451 461.381 198.048 468.642C197.114 473.478 192.762 476.142 185.795 476.142C183.808 476.142 181.659 475.927 179.411 475.502C178.603 475.35 177.876 475.273 177.251 475.273C173.856 475.273 173.216 477.378 172.093 482.136C171.634 484.084 171.112 486.292 170.216 488.727C166.731 498.186 166.884 502.478 170.822 505.739C175.546 509.647 179.178 527.713 178.683 532.333C178.367 535.277 172.499 539.644 165.038 539.644ZM134.085 501.877C135.138 504.331 142.622 521.524 149.207 530.686C155.039 537.131 161.039 538.493 165.038 538.493C171.987 538.493 177.301 534.417 177.538 532.21C177.99 527.984 174.364 510.164 170.088 506.626C165.132 502.523 165.929 497.03 169.135 488.33C170.007 485.961 170.52 483.789 170.972 481.872C172.033 477.373 172.8 474.122 177.25 474.122C177.957 474.122 178.733 474.204 179.623 474.372C181.801 474.783 183.878 474.991 185.794 474.991C190.289 474.991 195.869 473.851 196.916 468.424C198.224 461.65 197.358 461.196 196.047 460.51C195.888 460.427 195.725 460.341 195.558 460.245C192.715 458.61 190.931 456.346 190.786 454.192C190.72 453.223 191.019 452.406 191.608 451.952C192.107 451.565 192.977 451.942 194.817 452.823C195.577 453.187 196.362 453.562 196.884 453.73C197.488 453.924 197.975 454.022 198.33 454.022C199.012 454.022 199.138 453.741 199.237 452.018C199.263 451.56 199.292 451.063 199.359 450.546C199.706 447.878 199.842 447.592 201.187 446.708C201.755 446.335 202.613 445.772 203.913 444.572C204.883 443.676 205.307 442.488 205.106 441.227C204.804 439.323 203.129 437.501 200.626 436.354L200.333 436.22C195.577 434.042 193.975 433.31 193.214 427.997C192.133 420.449 190.263 414.074 188.086 410.51C187.356 409.102 181.216 405.885 172.539 405.885C167.514 405.885 160.018 407.049 152.842 412.59C139.495 422.898 141.197 456.223 142.016 472.238C142.148 474.837 142.264 477.082 142.285 478.678C142.43 489.326 135.372 500.019 134.085 501.877Z" fill="black"/>
<path d="M141.296 609.343C144.213 610.594 171.708 612.05 171.708 612.05C171.708 612.05 183.789 573.518 178.79 529.358C168.791 538.107 157.543 536.022 146.295 526.858C153.377 548.52 150.046 593.093 141.296 609.343Z" fill="black"/>
<path d="M183.599 438.384C184.207 440.332 185.601 441.632 186.712 441.286C187.823 440.938 188.228 439.077 187.622 437.128C187.014 435.18 185.618 433.88 184.511 434.228C183.4 434.575 182.99 436.435 183.599 438.384Z" fill="black"/>
<path d="M185.471 435.161C185.418 435.161 185.363 435.155 185.309 435.138C185.004 435.049 184.829 434.729 184.92 434.424L185.962 430.882C186.052 430.578 186.37 430.401 186.677 430.493C186.982 430.583 187.156 430.903 187.066 431.208L186.024 434.749C185.95 434.999 185.721 435.161 185.471 435.161Z" fill="black"/>
<path d="M157.751 552.686C154.536 528.969 143.932 513.278 134.553 498.742C133.114 496.511 131.784 496.83 131.17 496.952C126.685 497.841 121.681 499.946 122.964 502.693C123.236 503.275 123.654 503.872 124.174 504.538C122.228 504.93 119.899 505.418 117.133 506.027C106.716 508.317 100.271 512.437 93.8134 518.894C87.3559 525.351 54.3359 565.389 45.1716 575.595C57.2544 598.925 77.9844 602.361 77.9844 602.361C77.9844 602.361 96.9288 583.304 108.801 568.723C108.384 571.638 106.928 598.719 102.761 609.342C110.12 613.611 130.572 613.406 141.946 612.919C143.814 614.632 151.086 613.09 151.086 613.09C151.086 613.09 161.083 577.264 157.751 552.686Z" fill="#70BADB"/>
<path d="M122.652 416.667C117.185 418.698 111.092 423.696 107.811 445.099C106.224 455.448 102.384 466.561 103.107 477.116C103.784 486.996 112.34 489.69 121.062 491.434C128.746 492.971 158.61 500.091 160.494 487.233C162.69 472.232 139.045 464.699 142.437 450.775C143.127 447.945 145.969 444.428 148.896 443.773C152.63 442.937 153.741 446.13 156.645 448.087C160.183 450.472 162.301 449.078 164.427 445.498C166.435 442.114 165.683 436.692 165.365 432.893C164.948 427.915 164.357 426.117 168.676 424.691C174.515 422.767 179.516 418.811 173.895 412.136C181.393 421.038 185.143 419.634 191.235 415.728C197.328 411.821 197.64 408.228 195.297 401.511C192.953 394.794 185.768 384.483 173.113 386.045C160.459 387.607 161.708 391.044 146.555 394.169C131.401 397.295 121.715 401.826 122.652 416.667Z" fill="black"/>
<path d="M179.205 428.334C179.141 428.334 179.076 428.324 179.012 428.301C178.712 428.194 178.556 427.866 178.663 427.565C179.072 426.42 181.382 420.65 186.743 419.541C187.053 419.479 187.359 419.677 187.423 419.989C187.487 420.3 187.287 420.605 186.975 420.669C182.218 421.652 180.119 426.909 179.746 427.953C179.663 428.187 179.441 428.334 179.205 428.334Z" fill="black"/>
<path d="M141.505 612.417C141.494 612.417 141.481 612.417 141.469 612.415C141.152 612.395 140.911 612.122 140.931 611.805C140.962 611.304 141.068 609.941 141.222 607.956C142.123 596.376 144.519 565.613 143.641 558.588C142.721 551.233 144.714 549.391 147.731 546.601C148.109 546.252 148.505 545.886 148.917 545.489C147.432 544.543 143.531 542.064 140.58 540.261C137.496 538.377 136.817 535.82 135.005 528.983C134.464 526.944 133.85 524.631 133.036 521.808C130.562 513.216 127.038 508.937 124.706 506.105C124.133 505.409 123.639 504.809 123.227 504.234C123.042 503.975 123.102 503.615 123.361 503.43C123.621 503.245 123.98 503.306 124.164 503.564C124.554 504.108 125.036 504.694 125.594 505.372C127.987 508.278 131.603 512.668 134.143 521.489C134.96 524.325 135.601 526.744 136.117 528.689C137.844 535.2 138.491 537.637 141.179 539.279C144.891 541.548 150.095 544.875 150.147 544.91C150.293 545.003 150.39 545.16 150.409 545.332C150.428 545.505 150.367 545.678 150.245 545.801C149.636 546.41 149.055 546.946 148.514 547.447C145.563 550.175 143.938 551.677 144.784 558.445C145.677 565.587 143.276 596.434 142.371 608.046C142.217 610.023 142.111 611.38 142.081 611.878C142.06 612.182 141.808 612.417 141.505 612.417Z" fill="white"/>
<path d="M221.907 537.062L217.532 549.976C217.532 549.976 207.118 531.022 200.452 522.69C194.222 514.903 185.266 510.028 178.17 507.383C173.383 499.46 166.619 498.315 166.619 498.315C166.619 498.315 166.082 500.192 167.074 502.565C168.064 504.937 178.788 523.523 176.29 553.101C173.791 582.679 165.25 612.05 165.25 612.05H171.708C171.708 612.05 171.757 611.886 171.849 611.584C176.708 612.21 186.599 613.205 186.913 611.009C187.328 608.093 192.955 584.763 196.286 577.472C206.285 596.01 215.561 599.792 228.983 594.154C238.578 590.124 246.486 557.893 247.527 545.186C247.735 544.977 221.907 537.062 221.907 537.062Z" fill="#70BADB"/>
<path d="M171.707 612.625C171.652 612.625 171.595 612.617 171.539 612.601C171.235 612.508 171.063 612.186 171.157 611.881C171.285 611.46 184.085 569.527 185.934 561.514C187.835 553.273 187.775 552.284 186.535 549.862C184.977 546.819 183.64 544.145 183.64 544.145C183.506 543.878 183.598 543.555 183.853 543.398C185.259 542.53 188.775 539.762 188.177 537.414C186.847 532.197 181.782 514.911 178.079 508.342L177.959 508.131C177.802 507.855 177.897 507.503 178.174 507.346C178.449 507.186 178.801 507.284 178.959 507.56L179.082 507.777C182.842 514.447 187.954 531.876 189.293 537.132C190.079 540.217 186.242 543.167 184.899 544.089C185.346 544.978 186.39 547.054 187.561 549.34C189.009 552.168 188.952 553.562 187.058 561.775C185.2 569.827 172.387 611.797 172.258 612.221C172.182 612.465 171.954 612.625 171.707 612.625Z" fill="white"/>
<path d="M196.284 578.047C196.205 578.047 196.123 578.03 196.045 577.995C195.756 577.863 195.629 577.521 195.76 577.232C205.124 556.736 201.634 549.358 199.548 544.95C199.185 544.183 198.872 543.52 198.655 542.867C198.554 542.566 198.718 542.24 199.018 542.139C199.324 542.037 199.647 542.203 199.747 542.502C199.943 543.09 200.242 543.724 200.589 544.456C202.76 549.045 206.394 556.725 196.807 577.71C196.711 577.922 196.503 578.047 196.284 578.047Z" fill="black"/>
<path d="M220.918 558.363C220.703 558.363 220.497 558.243 220.398 558.036C220.375 557.987 218.075 553.174 216.012 548.22C215.89 547.926 216.028 547.589 216.321 547.467C216.614 547.349 216.951 547.483 217.074 547.778C219.127 552.705 221.414 557.493 221.438 557.541C221.575 557.827 221.454 558.172 221.167 558.309C221.085 558.345 221.001 558.363 220.918 558.363Z" fill="black"/>
<path d="M223.573 532.114C225.916 524.773 229.354 504.933 230.135 497.59C230.915 490.248 226.541 479.937 231.696 473.376C236.851 466.815 240.132 463.533 241.538 460.253C242.945 456.972 246.225 456.504 247.944 459.785C249.663 463.066 247.006 468.847 243.102 472.907C252.631 466.815 253.411 469.001 256.379 464.315C259.349 459.628 265.129 447.598 268.879 447.912C272.003 443.693 275.595 446.036 276.221 451.818C278.096 451.661 279.814 456.036 278.565 462.596C283.095 465.253 282.625 474.938 276.221 482.281C269.816 489.624 257.631 493.998 254.975 499.935C252.319 505.871 247.945 540.709 247.945 540.709L223.573 532.114Z" fill="white"/>
<path d="M247.943 541.283C247.879 541.283 247.814 541.272 247.751 541.251L223.38 532.658C223.087 532.554 222.929 532.236 223.023 531.939C225.385 524.542 228.81 504.589 229.562 497.529C229.824 495.055 229.488 492.237 229.131 489.256C228.439 483.476 227.723 477.5 231.244 473.02C232.83 471.002 234.231 469.301 235.468 467.802C238.238 464.443 240.067 462.224 241.009 460.027C241.828 458.112 243.277 456.97 244.882 456.97C246.304 456.97 247.605 457.898 248.453 459.517C249.99 462.45 248.423 466.889 245.739 470.63C248.199 469.22 249.912 468.466 251.157 467.916C253.437 466.913 254.29 466.537 255.893 464.006C256.526 463.006 257.31 461.629 258.142 460.172C262.089 453.251 265.603 447.505 268.595 447.333C269.989 445.563 271.312 445.182 272.19 445.182C274.461 445.182 276.216 447.561 276.734 451.286C277.107 451.377 277.554 451.611 277.994 452.142C279.145 453.533 280.131 457.02 279.199 462.317C280.657 463.323 281.613 465.022 281.978 467.259C282.753 472.015 280.663 478.059 276.654 482.656C273.632 486.122 269.458 488.862 265.422 491.512C261.016 494.405 256.855 497.137 255.5 500.167C252.91 505.958 248.559 540.431 248.515 540.778C248.493 540.949 248.395 541.104 248.247 541.196C248.154 541.255 248.049 541.283 247.943 541.283ZM224.286 531.756L247.462 539.928C248.115 534.81 251.968 505.245 254.448 499.7C255.941 496.362 260.239 493.541 264.789 490.553C268.759 487.945 272.866 485.249 275.785 481.903C279.578 477.554 281.564 471.88 280.841 467.448C280.505 465.388 279.617 463.882 278.271 463.094C278.061 462.971 277.951 462.729 277.997 462.489C278.909 457.696 278.208 454.209 277.106 452.879C276.922 452.656 276.635 452.39 276.316 452.39C276.023 452.39 275.679 452.173 275.648 451.88C275.289 448.564 273.899 446.337 272.19 446.337C271.257 446.337 270.271 447 269.341 448.256C269.222 448.416 269.032 448.508 268.831 448.487H268.828C266.133 448.487 261.926 455.864 259.143 460.745C258.305 462.215 257.512 463.604 256.865 464.625C255.074 467.452 253.992 467.929 251.621 468.973C249.863 469.747 247.455 470.808 243.412 473.393C243.165 473.549 242.84 473.497 242.656 473.273C242.471 473.048 242.485 472.72 242.686 472.51C246.224 468.831 249.091 463.215 247.434 460.053C246.783 458.809 245.876 458.124 244.883 458.124C243.753 458.124 242.701 459.005 242.068 460.481C241.061 462.831 239.19 465.102 236.356 468.537C235.123 470.031 233.727 471.726 232.149 473.734C228.924 477.839 229.61 483.574 230.273 489.121C230.638 492.169 230.982 495.05 230.706 497.653C229.968 504.587 226.658 523.916 224.286 531.756Z" fill="black"/>
<path d="M248.724 483.637C248.464 483.637 248.228 483.46 248.165 483.195C247.375 479.88 244.406 474.47 242.781 473.386C242.516 473.21 242.445 472.852 242.621 472.589C242.797 472.324 243.154 472.252 243.419 472.429C245.441 473.777 248.486 479.581 249.284 482.929C249.357 483.239 249.166 483.549 248.857 483.622C248.814 483.633 248.769 483.637 248.724 483.637Z" fill="black"/>
<path d="M267.785 480.513C267.573 480.513 267.37 480.396 267.269 480.195C266.688 479.031 259.771 470.739 257.134 469.86C256.833 469.76 256.67 469.434 256.771 469.132C256.871 468.831 257.195 468.667 257.498 468.768C260.521 469.777 267.666 478.417 268.298 479.68C268.441 479.965 268.325 480.31 268.04 480.453C267.959 480.493 267.871 480.513 267.785 480.513Z" fill="black"/>
<path d="M266.376 481.294C266.159 481.294 265.95 481.171 265.853 480.961C265.719 480.672 265.846 480.33 266.135 480.196C267.943 479.361 271.922 474.26 272.996 468.429C273.547 465.44 274.465 463.583 275.805 462.753C277.046 461.984 278.419 462.248 279.343 462.511C279.65 462.599 279.826 462.918 279.739 463.223C279.651 463.528 279.333 463.7 279.028 463.619C277.877 463.288 277.069 463.325 276.413 463.732C275.378 464.373 274.61 466.024 274.129 468.638C273.023 474.641 268.875 480.2 266.618 481.241C266.539 481.277 266.457 481.294 266.376 481.294Z" fill="black"/>
<path d="M264.347 476.138C264.186 476.138 264.027 476.071 263.913 475.94C263.704 475.699 263.73 475.337 263.969 475.127C267.375 472.166 268.77 467.849 270.031 461.392C271.19 455.449 273.45 452.143 276.745 451.563C277.056 451.505 277.356 451.716 277.412 452.029C277.467 452.342 277.259 452.64 276.945 452.695C274.166 453.185 272.221 456.185 271.161 461.612C269.853 468.315 268.381 472.818 264.726 475.996C264.615 476.092 264.482 476.138 264.347 476.138Z" fill="black"/>
<path d="M260.752 472.077C260.637 472.077 260.522 472.044 260.422 471.973C260.162 471.79 260.1 471.43 260.283 471.171C261.977 468.762 264.105 461.876 265.815 456.344C267.094 452.206 268.198 448.633 268.996 447.168C269.149 446.888 269.497 446.786 269.776 446.938C270.056 447.09 270.158 447.44 270.006 447.719C269.263 449.082 268.123 452.774 266.914 456.682C265.089 462.585 263.023 469.275 261.223 471.833C261.113 471.992 260.934 472.077 260.752 472.077Z" fill="black"/>
<path d="M107.549 570.549C107.417 570.549 107.284 570.504 107.177 570.412C106.935 570.206 106.905 569.843 107.111 569.6C110.621 565.472 117.683 557.99 117.755 557.915C117.972 557.686 118.336 557.673 118.568 557.892C118.799 558.111 118.809 558.474 118.591 558.706C118.52 558.779 111.479 566.24 107.987 570.346C107.874 570.481 107.712 570.549 107.549 570.549Z" fill="black"/>
<path d="M222.555 530.257C220.253 534.575 218.921 541.577 219.389 542.202C219.858 542.827 236.946 544.217 248.603 552.564C251.259 553.813 252.108 541.507 251.693 540.083C250.599 536.333 223.962 528.695 222.555 530.257Z" fill="black"/>
<path d="M157.542 552.22C157.407 552.22 157.274 552.173 157.164 552.078C157.111 552.033 151.863 547.476 149.421 545.849C149.157 545.673 149.084 545.315 149.261 545.052C149.437 544.788 149.793 544.715 150.058 544.892C152.56 546.559 157.701 551.02 157.918 551.21C158.158 551.418 158.183 551.781 157.975 552.021C157.862 552.153 157.702 552.22 157.542 552.22Z" fill="white"/>
<path d="M176.516 549.878C176.368 549.878 176.221 549.821 176.108 549.71C175.884 549.485 175.884 549.12 176.108 548.896C178.308 546.697 181.118 545.009 182.979 543.892C183.441 543.616 183.837 543.379 184.138 543.183C184.405 543.01 184.762 543.085 184.935 543.351C185.108 543.617 185.032 543.974 184.766 544.147C184.455 544.349 184.047 544.593 183.572 544.879C181.76 545.966 179.022 547.61 176.923 549.708C176.81 549.821 176.663 549.878 176.516 549.878Z" fill="white"/>
<path d="M159.784 468.06C159.176 462.381 154.699 456.56 149.383 459.955C144.761 462.907 143.354 470.855 147.584 474.623C149.384 476.226 152.3 476.976 154.736 476.498C158.828 475.696 160.196 471.91 159.784 468.06Z" fill="#F2AC30"/>
</g>
<path d="M214.362 611.973H214.359C203.126 611.973 192.126 611.559 179.39 611.078C168.451 610.666 156.05 610.196 141.287 609.918C98.1591 609.105 77.9448 605.999 51.3144 578.078C26.3937 551.951 32.0235 483.687 38.6537 454.72C53.762 388.724 94.2171 352.357 158.897 346.631C163.04 346.265 167.287 346.078 171.518 346.078C214.296 346.078 257.261 364.837 286.45 396.258C308.87 420.394 334.511 463.879 329.338 533.981C324.03 605.931 275.101 608.979 242.724 610.997L240.067 611.165C231.44 611.715 223.272 611.973 214.362 611.973ZM171.518 347.228C167.32 347.228 163.108 347.412 158.998 347.776C94.871 353.454 54.7579 389.522 39.7739 454.976C33.1886 483.745 27.5461 551.494 52.1456 577.283C78.4755 604.887 98.5194 607.96 141.307 608.766C156.081 609.044 168.487 609.512 179.433 609.926C192.158 610.406 203.147 610.821 214.358 610.821H214.361C223.246 610.821 231.39 610.564 239.993 610.014L242.651 609.847C274.629 607.855 322.955 604.845 328.189 533.894C332.258 478.734 317.533 431.41 285.605 397.04C256.63 365.849 213.981 347.228 171.518 347.228Z" fill="black"/>
<path d="M230.362 374.903C238.163 372.867 263.1 368.117 276.161 365.404C289.224 362.689 303.473 360.823 305.338 361.672C307.203 362.52 286.509 388.644 276.839 398.99C273.617 401.195 269.206 397.125 269.206 397.125C260.047 406.624 249.699 410.186 248.003 410.526C246.306 410.864 245.458 400.349 245.288 394.071C245.119 387.795 246.233 386.572 241.048 384.064C224.933 376.258 230.362 374.903 230.362 374.903Z" fill="#70BADB"/>
<path d="M248.002 411.101C247.749 411.101 247.518 410.932 247.447 410.677C247.363 410.369 247.544 410.053 247.85 409.97C248.701 409.66 251.797 404.646 254.057 400.985C256.486 397.051 258.781 393.334 260.147 391.967C262.723 389.392 286.451 373.194 296.522 366.378L247.196 385.954C246.902 386.07 246.567 385.927 246.448 385.632C246.331 385.336 246.476 385.002 246.77 384.885L301.051 363.342C301.336 363.227 301.663 363.36 301.789 363.642C301.915 363.923 301.796 364.255 301.521 364.392C299.845 365.28 263.653 390.088 260.959 392.781C259.687 394.053 257.321 397.885 255.033 401.59C251.104 407.954 249.265 410.776 248.151 411.08C248.104 411.094 248.053 411.101 248.002 411.101Z" fill="black"/>
<path d="M270.223 398.379C270.105 398.379 269.986 398.343 269.884 398.268L269.636 398.086C266.158 395.543 261.828 392.37 260.813 392.888C260.528 393.03 260.184 392.915 260.04 392.63C259.897 392.346 260.014 392.001 260.298 391.858C261.865 391.076 264.968 393.246 270.315 397.156L270.563 397.337C270.82 397.525 270.876 397.885 270.688 398.142C270.575 398.297 270.4 398.379 270.223 398.379Z" fill="black"/>
<path d="M314.494 491.209C307.969 491.807 304.266 495.859 304.92 507.391C305.571 518.925 302.96 530.828 307.531 535.29C312.101 539.756 323.632 539.758 334.297 539.942C344.96 540.126 358.77 539.814 362.858 539.756C372.486 539.616 375.914 537.943 377.22 530.408C377.989 525.974 376.144 500.955 376.078 498.324C375.914 491.768 371.671 490.931 362.369 490.512C353.449 490.11 320.587 490.651 314.494 491.209Z" fill="#F2AC30"/>
<path d="M340.687 521.741C340.644 521.741 340.601 521.74 340.558 521.74C335.968 521.671 332.237 517.81 329.498 514.452C324.438 508.246 313.053 495.52 310.285 493.155C310.044 492.949 310.015 492.585 310.222 492.343C310.428 492.1 310.792 492.074 311.034 492.28C313.837 494.676 325.305 507.488 330.391 513.724C332.971 516.887 336.461 520.527 340.576 520.589C343.519 520.608 346.596 518.823 349.727 515.209C358.347 505.264 371.139 492.737 371.267 492.611C371.496 492.389 371.861 492.394 372.081 492.621C372.303 492.847 372.299 493.212 372.071 493.435C371.944 493.56 359.186 506.054 350.598 515.962C347.23 519.849 343.986 521.741 340.687 521.741Z" fill="black"/>
<path d="M307.53 535.865C307.318 535.865 307.115 535.748 307.014 535.547C306.873 535.262 306.988 534.917 307.273 534.775C308.77 534.03 316.403 526.826 321.975 521.565C326.592 517.208 329.234 514.723 329.861 514.341C330.132 514.174 330.486 514.26 330.653 514.532C330.818 514.803 330.733 515.157 330.461 515.324C329.909 515.663 326.439 518.937 322.766 522.403C315.214 529.531 309.316 535.045 307.787 535.806C307.704 535.847 307.617 535.865 307.53 535.865Z" fill="black"/>
<path d="M372.598 537.727C372.402 537.727 372.209 537.626 372.101 537.443C371.735 536.819 367.446 532.173 363.3 527.681C357.825 521.752 352.165 515.62 351.309 514.26C351.14 513.992 351.22 513.635 351.489 513.467C351.76 513.297 352.114 513.381 352.282 513.647C353.082 514.918 358.959 521.284 364.145 526.902C369.427 532.623 372.685 536.165 373.094 536.861C373.255 537.135 373.163 537.488 372.887 537.65C372.799 537.702 372.699 537.727 372.598 537.727Z" fill="black"/>
<mask id="mask1_1_282" style="mask-type:luminance" maskUnits="userSpaceOnUse" x="370" y="275" width="295" height="258">
<path d="M470.478 283.232C430.259 291.71 367.302 309.214 370.199 385.943C373.095 462.671 402.596 502.218 451.851 517.563C501.107 532.909 621.967 548.67 647.629 497.656C673.291 446.643 664.83 373.813 651.587 343.535C638.342 313.257 606.239 254.615 470.478 283.232Z" fill="white"/>
</mask>
<g mask="url(#mask1_1_282)">
<path d="M579.276 345.817C576.11 332.386 546.943 315.117 534.471 319.914C521.999 324.71 537.925 330.274 537.925 330.274C518.738 326.821 509.527 329.122 507.608 333.921C505.689 338.718 513.748 340.636 513.748 340.636C500.7 341.021 486.118 351.19 488.229 358.29C490.339 365.389 498.974 362.798 498.974 362.798C486.693 372.681 488.696 382.729 501.51 381.542C488.036 391.677 486.119 410.289 491.299 417.005C496.479 423.722 501.508 413.556 501.508 413.556C496.095 428.518 504.153 438.304 511.829 425.832C510.103 442.909 525.261 445.212 530.058 436.77C534.663 453.08 545.601 450.584 547.52 442.526C553.469 450.009 565.173 447.514 567.475 439.455C573.999 447.131 579.756 440.127 579.18 434.179C585.896 442.046 596.45 443.005 598.56 428.711C608.153 435.81 612.951 435.618 610.36 418.637C626.383 424.489 634.825 406.644 616.405 391.294C628.686 394.555 627.342 381.891 609.785 374.312C622.161 374.024 623.696 365.581 617.556 359.346C611.416 353.109 601.055 341.019 579.276 345.817Z" fill="black"/>
<path d="M518.291 378.593C516.417 389.841 519.75 393.175 523.082 401.09C526.416 409.005 521.755 417.346 530.634 427.23C538.913 436.447 551.411 435.875 551.411 435.875L554.951 450.248L585.572 442.331L578.907 413.483C578.907 413.483 585.157 410.047 583.281 397.756C581.407 385.466 581.198 355.056 551.411 359.638C521.624 364.219 521 369.635 518.291 378.593Z" fill="white"/>
<path d="M554.952 450.823C554.848 450.823 554.747 450.796 554.657 450.742C554.524 450.663 554.43 450.534 554.393 450.385L550.962 436.456C548.786 436.455 537.75 436.012 530.207 427.613C524.502 421.262 524.246 415.388 524.02 410.205C523.884 407.101 523.756 404.169 522.553 401.311C521.908 399.778 521.269 398.432 520.651 397.13C518.158 391.875 516.188 387.726 517.726 378.496L518.01 377.531C520.613 368.813 522.184 363.549 551.326 359.067C553.366 358.754 555.334 358.594 557.175 358.594C579.105 358.594 581.73 380.384 583.298 393.403C583.487 394.976 583.66 396.416 583.851 397.667C585.518 408.595 580.945 412.755 579.559 413.743L586.134 442.199C586.203 442.503 586.019 442.808 585.717 442.886L555.097 450.803C555.048 450.818 555 450.823 554.952 450.823ZM551.411 435.299C551.675 435.299 551.908 435.479 551.97 435.737L555.371 449.544L584.885 441.914L578.346 413.612C578.288 413.361 578.404 413.101 578.629 412.977C578.686 412.945 584.496 409.534 582.711 397.841C582.519 396.579 582.344 395.128 582.153 393.542C580.631 380.902 578.082 359.746 557.172 359.746C555.389 359.746 553.48 359.901 551.499 360.206C523.076 364.577 521.585 369.577 519.111 377.861L518.843 378.757C517.382 387.559 519.188 391.368 521.69 396.637C522.314 397.951 522.958 399.308 523.613 400.866C524.896 403.912 525.028 406.944 525.17 410.155C525.398 415.388 525.634 420.8 531.063 426.844C538.297 434.898 548.921 435.305 550.977 435.305C551.53 435.305 551.394 435.299 551.411 435.299Z" fill="black"/>
<path d="M590.352 387.259C589.312 380.982 588.037 375.045 584.792 369.452C582.791 366.002 580.985 362.454 577.603 360.155C568.101 353.697 555.306 354.084 544.493 356.328C535.905 358.11 526.346 361.152 519.692 367.072C517.48 369.038 508.524 377.966 514.324 380.547C517.721 382.057 521.464 378.852 524.025 376.687C524.141 377.013 524.323 377.363 524.589 377.764C526.316 380.354 530.634 380.642 533.512 380.066C540.995 378.915 548.191 374.022 553.659 368.554C552.508 370.281 551.069 372.583 551.645 374.886C552.796 377.476 555.386 377.764 557.689 377.764C562.582 377.476 567.187 373.447 570.641 370.281C567.763 375.749 564.596 381.218 564.309 387.55C564.021 390.428 564.309 393.594 565.46 396.184C566.899 399.638 570.065 399.638 572.943 397.624C571.504 402.229 570.641 406.546 572.655 411.15C573.856 413.896 577.644 418.538 582.921 417.579C587.136 416.813 587.917 406.926 589.445 403.476C592.296 397.036 591.512 394.27 590.352 387.259Z" fill="black"/>
<path d="M512.52 382.614C509.944 382.614 507.451 381.698 506.756 379.086C506.35 377.567 506.591 375.726 506.951 374.509C507.649 372.14 509.803 368.786 511.75 367.034C511.984 366.821 512.347 366.839 512.563 367.077C512.776 367.313 512.756 367.676 512.519 367.889C510.737 369.493 508.693 372.674 508.055 374.835C507.74 375.901 507.525 377.499 507.869 378.789C508.734 382.036 513.32 381.47 514.232 381.323C516.962 380.884 518.986 380.258 520.601 379.355C520.877 379.202 521.23 379.3 521.385 379.576C521.54 379.853 521.441 380.205 521.164 380.36C519.427 381.331 517.283 381.998 514.415 382.46C513.795 382.559 513.155 382.614 512.52 382.614Z" fill="white"/>
<path d="M542.902 416.426C542.892 416.426 542.88 416.426 542.871 416.425C539.083 416.216 536.716 415.341 535.634 413.748C534.289 411.77 535.148 409.189 535.981 406.693C536.143 406.206 536.304 405.72 536.447 405.245C537.723 400.99 534.801 395.854 531.546 392.882C528.977 390.537 525.702 390.097 523.598 390.698C522.402 391.04 521.582 391.714 521.347 392.549C521.26 392.855 520.947 393.032 520.636 392.947C520.33 392.861 520.153 392.543 520.238 392.237C520.585 391.009 521.693 390.046 523.282 389.592C525.696 388.901 529.428 389.389 532.322 392.033C535.952 395.346 538.975 400.819 537.549 405.577C537.404 406.062 537.238 406.56 537.072 407.058C536.33 409.289 535.562 411.595 536.586 413.102C537.441 414.361 539.577 415.092 542.934 415.278C543.252 415.296 543.495 415.567 543.478 415.885C543.461 416.189 543.206 416.426 542.902 416.426Z" fill="black"/>
<path d="M541.14 390.979C541.014 390.979 540.888 390.939 540.782 390.855C540.532 390.657 540.491 390.296 540.689 390.046C542.699 387.507 548.521 382.255 559.126 388.292C559.403 388.45 559.499 388.801 559.343 389.078C559.185 389.354 558.834 389.449 558.558 389.293C549.081 383.9 543.862 387.897 541.591 390.761C541.477 390.906 541.31 390.979 541.14 390.979Z" fill="black"/>
<path d="M554.664 399.879C555.628 401.678 555.582 403.584 554.556 404.133C553.531 404.684 551.916 403.671 550.95 401.871C549.983 400.073 550.035 398.168 551.057 397.621C552.084 397.071 553.697 398.081 554.664 399.879Z" fill="black"/>
<path d="M551.764 398.478C551.672 398.478 551.58 398.456 551.493 398.41L548.234 396.674C547.954 396.524 547.847 396.175 547.997 395.895C548.148 395.615 548.498 395.512 548.776 395.658L552.035 397.394C552.315 397.544 552.422 397.893 552.273 398.173C552.169 398.367 551.97 398.478 551.764 398.478Z" fill="black"/>
<path d="M532.95 401.754C533.913 403.554 533.867 405.458 532.841 406.008C531.817 406.559 530.201 405.545 529.236 403.745C528.269 401.948 528.32 400.042 529.343 399.495C530.369 398.945 531.983 399.954 532.95 401.754Z" fill="black"/>
<path d="M530.049 400.352C529.957 400.352 529.865 400.33 529.778 400.284L526.519 398.548C526.239 398.398 526.132 398.05 526.282 397.77C526.432 397.488 526.783 397.384 527.061 397.531L530.321 399.268C530.601 399.417 530.708 399.766 530.558 400.046C530.454 400.242 530.255 400.352 530.049 400.352Z" fill="black"/>
<path d="M546.771 426.219C544.024 426.219 541.326 423.669 539.174 419.037C539.086 418.85 539.106 418.63 539.227 418.462C539.345 418.294 539.543 418.203 539.753 418.222C540.342 418.281 540.951 418.342 541.55 418.342C543.772 418.342 546.404 417.468 553.285 413.001C553.47 412.88 553.706 412.878 553.896 412.991C554.085 413.105 554.192 413.317 554.171 413.537C553.452 421.36 550.616 426.219 546.771 426.219ZM540.661 419.459C542.502 423.038 544.7 425.068 546.771 425.068C549.74 425.068 552.092 421.008 552.896 414.619C545.679 419.211 543.264 419.643 540.661 419.459Z" fill="black"/>
<path d="M545.162 425.775C545.112 425.775 545.061 425.769 545.01 425.754C544.702 425.67 544.523 425.353 544.606 425.047C545.62 421.327 549.753 418.548 552.471 418.708C552.788 418.728 553.03 419.001 553.01 419.318C552.991 419.635 552.745 419.877 552.4 419.857C550.085 419.71 546.571 422.221 545.717 425.35C545.648 425.607 545.415 425.775 545.162 425.775Z" fill="black"/>
<path d="M475.956 523.618C481.423 518.308 507.513 483.782 517.667 471.44C527.82 459.099 539.538 458.787 555.473 458.63C551.549 442.908 552.591 442.56 553.373 442.716C554.153 442.872 569.04 446.119 583.882 435.808C587.815 434.754 587.655 450.507 591.404 452.538C595.153 454.57 620.149 449.413 632.491 461.756C644.833 474.096 653.425 503.31 653.425 503.31C646.708 514.09 601.09 547.989 543.757 532.368C542.664 527.524 534.852 520.025 532.508 510.497C522.822 523.15 515.948 532.523 515.948 532.523C515.948 532.523 485.173 530.492 475.956 523.618Z" fill="#F2AC30"/>
<path d="M567.427 463.365C561.151 463.365 556.777 460.827 555.057 459.029C554.838 458.798 554.845 458.434 555.075 458.215C555.304 457.995 555.669 458.004 555.889 458.233C559.117 461.609 572.361 467.671 590.241 451.796C590.48 451.584 590.843 451.606 591.054 451.845C591.266 452.083 591.243 452.445 591.006 452.657C581.761 460.865 573.656 463.365 567.427 463.365Z" fill="black"/>
<path d="M564.118 463.218C563.871 463.218 563.643 463.058 563.567 462.811C563.358 462.126 558.45 445.996 557.932 443.711C557.862 443.401 558.057 443.093 558.366 443.022C558.678 442.952 558.983 443.147 559.055 443.456C559.564 445.7 564.617 462.307 564.668 462.476C564.76 462.779 564.59 463.102 564.285 463.194C564.23 463.21 564.173 463.218 564.118 463.218Z" fill="black"/>
<path d="M570.885 463.113C570.64 463.113 570.413 462.956 570.335 462.709L564.295 443.442C564.201 443.14 564.369 442.816 564.673 442.722C564.976 442.63 565.299 442.795 565.395 443.099L571.434 462.366C571.529 462.669 571.361 462.992 571.057 463.087C571 463.104 570.943 463.113 570.885 463.113Z" fill="black"/>
<path d="M577.969 461.029C577.728 461.029 577.502 460.875 577.421 460.633L571.38 442.199C571.281 441.896 571.447 441.571 571.749 441.472C572.045 441.373 572.375 441.538 572.475 441.84L578.516 460.274C578.615 460.577 578.449 460.901 578.148 461C578.089 461.02 578.029 461.029 577.969 461.029Z" fill="black"/>
<path d="M584.428 457.698C584.179 457.698 583.95 457.535 583.876 457.285L578.771 439.996C578.682 439.691 578.855 439.371 579.16 439.282C579.464 439.189 579.786 439.366 579.875 439.671L584.98 456.96C585.07 457.265 584.896 457.585 584.591 457.674C584.536 457.689 584.482 457.698 584.428 457.698Z" fill="black"/>
<path d="M551.578 436.558C551.515 436.558 551.456 436.557 551.396 436.555C551.079 436.547 550.827 436.284 550.835 435.966C550.843 435.648 551.074 435.403 551.426 435.404C555.505 435.547 566.467 431.965 573.461 423.327C573.662 423.08 574.023 423.043 574.271 423.242C574.518 423.442 574.556 423.805 574.356 424.051C567.213 432.872 555.966 436.558 551.578 436.558Z" fill="black"/>
<path d="M534.694 516.853C534.473 516.853 534.262 516.725 534.167 516.508C530.353 507.84 530.058 499.192 530.058 496.749C530.058 496.431 530.316 496.173 530.633 496.173C530.951 496.173 531.209 496.431 531.209 496.749C531.209 498.448 531.402 507.364 535.221 516.046C535.349 516.337 535.216 516.677 534.925 516.804C534.85 516.837 534.772 516.853 534.694 516.853Z" fill="black"/>
<path d="M618.586 527.788C618.337 527.788 618.107 527.624 618.035 527.374C617.983 527.198 612.857 509.653 610.697 503.021C610.599 502.719 610.765 502.395 611.065 502.296C611.374 502.199 611.693 502.364 611.792 502.666C613.957 509.313 619.088 526.875 619.139 527.051C619.229 527.357 619.054 527.676 618.749 527.765C618.695 527.78 618.639 527.788 618.586 527.788Z" fill="black"/>
<path d="M580.842 418.592C579.056 418.592 576.995 418 574.787 416.843C574.506 416.696 574.397 416.348 574.544 416.066C574.693 415.783 575.044 415.677 575.322 415.823C577.95 417.2 580.308 417.715 582.124 417.307C586.407 416.334 588.186 408.831 588.186 405.03C588.186 404.783 588.344 404.565 588.576 404.484C588.809 404.406 589.068 404.483 589.219 404.679C591.177 407.225 593.481 408.412 596.469 408.412C599.385 408.217 602.203 404.989 602.565 402.45C602.611 402.135 602.91 401.912 603.217 401.962C603.531 402.006 603.751 402.299 603.706 402.613C603.276 405.634 600.037 409.329 596.508 409.564H596.505C593.623 409.564 591.254 408.561 589.275 406.508C588.879 411.219 586.66 417.458 582.38 418.431C581.894 418.538 581.381 418.592 580.842 418.592Z" fill="white"/>
</g>
<path d="M554.822 533.094C554.816 533.094 554.815 533.094 554.809 533.094C514.177 533.093 473.859 525.022 451.68 518.112C399.204 501.763 372.362 458.537 369.624 385.964C368.351 352.235 379.859 326.183 403.829 308.53C423.671 293.918 448.596 287.257 470.359 282.669C494.499 277.581 516.711 275 536.377 275C571.841 275 600.232 283.371 620.763 299.878C637.656 313.46 646.392 330.219 652.113 343.303C659.402 359.966 664.253 386.598 664.773 412.808C665.227 435.652 662.709 468.959 648.143 497.914C633.517 526.988 589.323 533.094 554.822 533.094ZM536.376 276.151C516.789 276.151 494.658 278.723 470.596 283.795C419.732 294.518 368.097 315.036 370.774 385.921C373.492 457.946 400.068 500.827 452.021 517.013C475.87 524.443 516.901 531.942 554.808 531.943C554.813 531.943 554.817 531.943 554.821 531.943C589 531.943 632.75 525.949 647.113 497.397C661.574 468.653 664.072 435.543 663.621 412.831C663.104 386.762 658.289 360.298 651.058 343.765C642.969 325.273 621.481 276.151 536.376 276.151Z" fill="black"/>
<path d="M421.109 334.63H375.979C368.132 334.63 362.139 341.377 362.619 349.535L363.836 370.27C364.278 377.827 370.609 383.753 377.95 383.641L410.603 383.149C412.307 388.216 413.555 393.146 416.822 392.907C419.159 392.676 420.16 387.734 420.826 382.964C427.675 382.539 433.315 376.702 433.572 369.507L434.306 349.21C434.594 341.227 428.702 334.63 421.109 334.63Z" fill="white"/>
<path d="M416.594 393.49C413.396 393.49 412.078 389.479 410.554 384.835C410.434 384.47 410.314 384.102 410.19 383.732L377.744 384.219C370.078 384.219 363.716 378.107 363.26 370.303L362.044 349.569C361.797 345.376 363.24 341.291 366.003 338.362C368.622 335.584 372.166 334.054 375.979 334.054H421.109C424.762 334.054 428.191 335.523 430.765 338.192C433.53 341.059 435.031 345.082 434.881 349.229L434.146 369.526C433.886 376.776 428.298 382.823 421.329 383.501C420.597 388.586 419.526 393.217 416.877 393.479C416.773 393.487 416.682 393.49 416.594 393.49ZM410.603 382.574C410.85 382.574 411.069 382.732 411.148 382.966C411.319 383.472 411.484 383.977 411.649 384.476C413.07 388.803 414.319 392.523 416.779 392.332C418.967 392.117 419.903 385.409 420.256 382.885C420.294 382.614 420.517 382.407 420.79 382.39C427.391 381.981 432.753 376.313 432.997 369.486L433.732 349.189C433.871 345.353 432.488 341.635 429.938 338.992C427.584 336.551 424.45 335.207 421.111 335.207H375.981C372.488 335.207 369.243 336.608 366.842 339.153C364.297 341.853 362.968 345.625 363.195 349.503L364.412 370.238C364.825 377.314 370.807 383.069 377.746 383.069L377.942 383.067L410.596 382.575C410.596 382.575 410.599 382.574 410.603 382.574Z" fill="black"/>
<path d="M384.672 359.769C384.672 362.271 382.691 364.3 380.248 364.3C377.804 364.3 375.822 362.271 375.822 359.769C375.822 357.266 377.804 355.238 380.248 355.238C382.691 355.239 384.672 357.266 384.672 359.769Z" fill="#70BADB"/>
<path d="M402.164 359.769C402.164 362.271 400.182 364.3 397.738 364.3C395.295 364.3 393.313 362.271 393.313 359.769C393.313 357.266 395.295 355.238 397.738 355.238C400.182 355.239 402.164 357.266 402.164 359.769Z" fill="#70BADB"/>
<path d="M419.655 359.769C419.655 362.271 417.674 364.3 415.231 364.3C412.785 364.3 410.804 362.271 410.804 359.769C410.804 357.266 412.785 355.238 415.231 355.238C417.675 355.239 419.655 357.266 419.655 359.769Z" fill="#70BADB"/>
<path d="M566.258 724.533H521.449C521.131 724.533 520.873 724.275 520.873 723.957C520.873 723.64 521.131 723.382 521.449 723.382H566.259C566.577 723.382 566.835 723.64 566.835 723.957C566.834 724.276 566.577 724.533 566.258 724.533Z" fill="black"/>
<path d="M433.827 561.427C420.548 555.023 418.048 540.65 437.42 535.183C423.828 518.466 437.575 508.78 446.794 506.905C456.011 505.03 474.289 509.717 491.941 524.87C509.595 540.024 517.25 540.805 522.562 552.677C527.873 564.551 525.373 573.768 520.061 585.798C514.751 597.826 514.125 601.576 524.436 611.262C534.747 620.948 543.183 630.633 535.998 648.911C528.811 667.189 442.888 660.471 438.827 647.973C434.765 635.476 444.451 589.702 444.451 589.702L433.827 561.427Z" fill="black"/>
<path d="M423.986 636.259C421.954 627.354 424.313 606.909 442.107 596.734C455.085 589.313 461.947 599.703 461.947 599.703L463.978 633.916C463.978 633.916 428.359 636.415 423.986 636.259Z" fill="black"/>
<path d="M324.001 584.862C322.44 582.675 320.099 579.682 317.913 581.244C315.727 582.805 319.208 595.491 329.001 593.922C326.501 590.174 324.001 584.862 324.001 584.862Z" fill="white"/>
<path d="M327.36 594.631C321.872 594.631 318.486 590.146 317.257 586.308C316.619 584.317 316.321 581.675 317.579 580.776C318.081 580.418 318.626 580.234 319.194 580.234C321.138 580.234 322.878 582.298 324.47 584.525C324.547 584.668 327.033 589.933 329.48 593.602C329.588 593.766 329.607 593.972 329.528 594.151C329.45 594.331 329.285 594.459 329.092 594.49C328.507 594.584 327.925 594.631 327.36 594.631ZM319.194 581.386C318.865 581.386 318.557 581.493 318.248 581.713C317.82 582.018 317.619 583.662 318.354 585.956C319.519 589.593 322.496 593.48 327.36 593.48C327.36 593.48 327.36 593.48 327.362 593.48C327.576 593.48 327.794 593.472 328.013 593.457C325.696 589.797 323.504 585.155 323.481 585.106C322.718 584.056 320.812 581.386 319.194 581.386Z" fill="black"/>
<path d="M351.654 586.268C346.343 584.55 342.905 580.332 344.625 576.894C346.343 573.458 351.967 577.987 355.873 581.112C359.78 584.236 363.528 584.862 363.528 584.862C363.528 584.862 357.747 587.83 351.654 586.268Z" fill="white"/>
<path d="M355.371 587.298C354.032 587.298 352.733 587.139 351.51 586.826C347.95 585.674 345.105 583.403 344.05 580.891C343.433 579.42 343.454 577.948 344.109 576.637C344.615 575.624 345.474 575.088 346.591 575.088C349.262 575.088 353.084 578.146 356.156 580.603C359.961 583.647 363.586 584.288 363.622 584.294C363.866 584.336 364.057 584.529 364.095 584.774C364.132 585.019 364.01 585.261 363.789 585.374C363.637 585.452 359.988 587.298 355.371 587.298ZM346.592 576.239C345.912 576.239 345.45 576.529 345.139 577.15C344.632 578.167 344.621 579.276 345.112 580.444C346.04 582.657 348.614 584.679 351.83 585.719C352.925 585.998 354.127 586.145 355.371 586.145C357.984 586.145 360.306 585.497 361.744 584.979C360.238 584.479 357.91 583.478 355.512 581.56C352.661 579.28 348.859 576.239 346.592 576.239Z" fill="black"/>
<path d="M357.226 634.23C356.811 625.063 355.769 606.734 354.311 600.903C352.853 595.07 343.686 596.734 343.062 596.527C342.438 596.318 331.034 600.64 325.409 589.237C319.784 577.832 324.316 573.614 327.44 574.707C328.534 570.958 331.659 572.051 333.376 573.926C334.939 570.645 339.469 574.083 340.563 578.301C341.656 582.519 342.749 586.269 351.498 585.175C360.247 584.081 371.026 581.582 375.244 594.236C379.462 606.889 382.899 626.574 382.899 626.574C382.899 626.574 381.233 639.073 357.226 634.23Z" fill="white"/>
<path d="M367.237 635.92C364.224 635.92 360.818 635.541 357.112 634.793C356.853 634.74 356.661 634.519 356.65 634.254C356.369 628.057 355.328 607.349 353.751 601.04C353.084 598.38 350.453 597.031 345.927 597.031C345.191 597.031 344.54 597.064 344.046 597.091C343.476 597.119 343.159 597.132 342.966 597.095C342.841 597.104 342.621 597.154 342.321 597.214C341.345 597.41 339.71 597.735 337.734 597.735C331.992 597.735 327.551 594.884 324.891 589.49C320.976 581.553 322.114 577.599 323.141 575.948C324.045 574.493 325.567 573.756 327.063 574.015C327.856 571.953 329.269 571.629 330.079 571.629C331.121 571.629 332.274 572.135 333.266 573.011C333.767 572.382 334.445 572.042 335.233 572.042C337.524 572.042 340.275 574.9 341.119 578.154C342.042 581.715 342.84 584.79 348.678 584.79C349.505 584.79 350.429 584.727 351.425 584.603C352.067 584.523 352.719 584.435 353.379 584.346C355.949 583.999 358.606 583.642 361.214 583.642C365.981 583.642 372.679 584.722 375.79 594.052C379.974 606.601 383.432 626.276 383.466 626.474C383.476 626.531 383.477 626.591 383.469 626.649C383.455 626.742 382.059 635.92 367.237 635.92ZM357.779 633.753C361.24 634.428 364.42 634.77 367.237 634.77C380.336 634.77 382.15 627.418 382.313 626.575C382.045 625.059 378.7 606.431 374.696 594.417C371.853 585.889 365.996 584.795 361.212 584.795C358.683 584.795 356.064 585.147 353.532 585.488C352.869 585.578 352.213 585.665 351.568 585.747C350.525 585.877 349.553 585.944 348.678 585.944C341.949 585.944 340.916 581.96 340.005 578.447C339.238 575.49 336.81 573.196 335.233 573.196C334.647 573.196 334.209 573.516 333.895 574.174C333.813 574.347 333.649 574.468 333.461 574.495C333.267 574.525 333.08 574.458 332.951 574.316C332.084 573.371 330.984 572.782 330.079 572.782C329.097 572.782 328.395 573.485 327.991 574.87C327.946 575.022 327.842 575.148 327.702 575.221C327.562 575.294 327.396 575.303 327.25 575.252C326.121 574.859 324.855 575.375 324.12 576.559C323.396 577.725 322.121 581.269 325.926 588.984C328.413 594.029 332.388 596.586 337.737 596.586C339.598 596.586 341.163 596.274 342.098 596.087C342.541 595.998 342.809 595.944 342.998 595.944C343.06 595.944 343.186 595.962 343.244 595.981C343.457 595.97 343.694 595.958 343.988 595.943C344.497 595.917 345.169 595.882 345.929 595.882C351.051 595.882 354.061 597.525 354.87 600.763C356.435 607.027 357.47 627.033 357.779 633.753Z" fill="black"/>
<path d="M329.859 595.347C329.737 595.347 329.612 595.308 329.508 595.228C325.971 592.494 323.623 588.41 322.532 583.087C322.468 582.777 322.669 582.471 322.98 582.407C323.295 582.344 323.596 582.544 323.659 582.856C324.694 587.901 326.898 591.758 330.211 594.317C330.463 594.512 330.509 594.872 330.315 595.124C330.202 595.271 330.031 595.347 329.859 595.347Z" fill="black"/>
<path d="M344.625 593.249C344.617 593.249 344.608 593.249 344.6 593.249C341.382 593.108 338.717 591.733 336.679 589.157C332.781 584.232 332.337 576.296 332.811 573.817C332.869 573.505 333.168 573.298 333.484 573.36C333.796 573.42 334.001 573.721 333.941 574.034C333.512 576.283 333.965 583.875 337.582 588.443C339.402 590.745 341.78 591.974 344.649 592.099C344.967 592.114 345.213 592.382 345.2 592.699C345.186 593.007 344.931 593.249 344.625 593.249Z" fill="black"/>
<path d="M338.532 597.466C338.516 597.466 338.5 597.465 338.484 597.464C335.476 597.213 332.967 595.81 331.024 593.297C326.428 587.347 326.455 577.004 326.872 574.608C326.926 574.295 327.223 574.08 327.538 574.141C327.852 574.195 328.061 574.493 328.007 574.806C327.609 577.092 327.576 586.949 331.936 592.594C333.672 594.841 335.908 596.095 338.58 596.317C338.897 596.342 339.132 596.622 339.105 596.939C339.08 597.239 338.828 597.466 338.532 597.466Z" fill="black"/>
<path d="M446.795 644.538C451.95 646.881 466.947 652.193 494.13 645.32C493.191 664.067 491.318 703.591 491.318 703.591C491.318 703.591 468.666 716.402 453.511 711.091C449.294 703.903 446.795 644.538 446.795 644.538Z" fill="black"/>
<path d="M451.435 629.704C455.965 629.079 460.855 627.354 460.385 619.855C459.915 612.356 458.667 602.513 458.667 602.513C446.951 602.358 435.389 596.264 430.079 584.235C424.766 572.207 431.796 565.958 435.703 553.46C439.608 540.963 446.952 530.652 463.353 531.746C479.756 532.839 488.505 540.65 488.505 540.65C485.694 555.335 482.881 576.113 488.974 577.363C495.066 578.612 496.63 567.834 496.63 567.834C505.847 563.303 515.502 568.817 511.783 576.894C507.253 586.736 496.473 581.737 496.473 581.737C494.287 587.361 485.07 593.61 485.07 593.61C486.475 605.172 487.875 624.294 496.623 625.388C493.03 643.667 491.162 650.32 491.162 650.32C491.162 650.32 459.762 657.974 448.356 646.727C448.825 642.821 451.435 629.704 451.435 629.704Z" fill="white"/>
<path d="M469.703 653.438C459.509 653.438 452.192 651.317 447.95 647.136C447.825 647.01 447.763 646.833 447.784 646.657C448.249 642.774 450.762 630.128 450.869 629.591C450.916 629.351 451.112 629.168 451.355 629.134C455.784 628.523 460.251 626.948 459.81 619.892C459.407 613.446 458.413 605.167 458.157 603.08C445.412 602.732 434.482 595.637 429.551 584.469C425.642 575.62 428.204 569.89 431.447 562.634C432.727 559.768 434.052 556.804 435.15 553.289C440.102 537.444 449.315 530.232 463.389 531.171C479.802 532.265 488.523 539.897 488.887 540.221C489.038 540.355 489.107 540.56 489.069 540.758C484.849 562.795 484.856 575.931 489.088 576.799C489.376 576.859 489.66 576.889 489.933 576.889C494.678 576.889 496.045 567.843 496.057 567.752C496.086 567.564 496.203 567.401 496.374 567.318C498.624 566.212 501.043 565.627 503.369 565.627C507.189 565.627 510.449 567.156 512.091 569.719C513.452 571.844 513.527 574.478 512.304 577.134C509.852 582.464 505.621 583.583 502.504 583.583C499.962 583.583 497.764 582.866 496.778 582.488C494.454 587.549 487.247 592.788 485.679 593.885C485.785 594.767 485.891 595.689 486.002 596.643C487.323 608.135 489.135 623.872 496.69 624.817C496.849 624.838 496.993 624.922 497.086 625.051C497.179 625.18 497.215 625.342 497.184 625.5C493.628 643.592 491.733 650.41 491.713 650.476C491.657 650.676 491.497 650.831 491.295 650.88C491.193 650.904 480.669 653.438 469.703 653.438ZM448.962 646.513C453.013 650.346 459.987 652.288 469.703 652.288C479.444 652.288 488.839 650.262 490.695 649.838C491.101 648.311 492.895 641.306 495.943 625.854C488.006 624.111 486.193 608.356 484.859 596.774C484.736 595.699 484.617 594.661 484.498 593.679C484.473 593.464 484.568 593.255 484.747 593.132C484.836 593.071 493.84 586.919 495.937 581.528C495.995 581.38 496.111 581.263 496.258 581.203C496.406 581.143 496.572 581.149 496.714 581.214C496.74 581.227 499.384 582.431 502.505 582.431C506.55 582.431 509.495 580.487 511.26 576.653C512.329 574.331 512.282 572.148 511.123 570.339C509.695 568.11 506.796 566.778 503.371 566.778C501.311 566.778 499.167 567.277 497.151 568.223C496.851 569.946 495.168 578.04 489.936 578.04C489.584 578.04 489.223 578.002 488.859 577.927C483.727 576.874 483.396 564.408 487.877 540.874C486.355 539.646 477.825 533.286 463.315 532.319C449.687 531.413 441.089 538.152 436.252 553.632C435.132 557.211 433.733 560.342 432.5 563.104C429.373 570.099 426.905 575.624 430.605 584.003C435.418 594.9 446.172 601.773 458.676 601.938C458.962 601.941 459.203 602.155 459.239 602.442C459.251 602.54 460.496 612.388 460.96 619.819C461.453 627.698 456.16 629.567 451.92 630.215C451.492 632.384 449.452 642.779 448.962 646.513Z" fill="black"/>
<path d="M447.731 577.314C447.634 577.314 447.537 577.29 447.447 577.239C444.151 575.361 442.422 573.52 442.163 571.613C441.843 569.243 443.764 567.318 445.621 565.456C445.983 565.092 446.346 564.728 446.687 564.366C449.727 561.128 449.405 555.228 447.819 551.115C447.138 549.352 445.99 548.307 444.407 548.012C442.317 547.629 440.061 548.663 438.993 549.838C438.779 550.074 438.416 550.092 438.18 549.877C437.944 549.663 437.927 549.3 438.141 549.065C439.451 547.623 442.094 546.417 444.619 546.881C445.995 547.139 447.855 548.009 448.894 550.702C450.662 555.286 450.926 561.534 447.525 565.155C447.177 565.525 446.808 565.896 446.436 566.269C444.777 567.933 443.06 569.654 443.304 571.459C443.509 572.967 445.093 574.574 448.015 576.238C448.292 576.396 448.388 576.747 448.232 577.024C448.125 577.209 447.931 577.314 447.731 577.314Z" fill="black"/>
<path d="M475.955 557.838C475.77 557.838 475.589 557.749 475.477 557.583C469.404 548.523 462.948 549.771 459.639 551.326C459.355 551.46 459.01 551.337 458.873 551.048C458.739 550.76 458.863 550.417 459.151 550.283C462.084 548.91 469.638 546.805 476.433 556.942C476.61 557.205 476.54 557.563 476.275 557.739C476.177 557.807 476.066 557.838 475.955 557.838Z" fill="black"/>
<path d="M466.681 566.03C466.072 567.977 464.677 569.278 463.566 568.932C462.456 568.585 462.05 566.723 462.658 564.774C463.265 562.826 464.66 561.526 465.769 561.875C466.88 562.222 467.288 564.08 466.681 566.03Z" fill="black"/>
<path d="M466.06 563.15C465.812 563.15 465.581 562.987 465.509 562.737L464.467 559.196C464.377 558.89 464.551 558.571 464.856 558.481C465.166 558.392 465.482 558.564 465.571 558.87L466.613 562.412C466.703 562.718 466.529 563.037 466.224 563.127C466.168 563.143 466.114 563.15 466.06 563.15Z" fill="black"/>
<path d="M443.924 561.76C443.316 563.707 441.922 565.007 440.811 564.662C439.7 564.316 439.295 562.453 439.901 560.505C440.509 558.556 441.905 557.257 443.013 557.605C444.122 557.952 444.533 559.81 443.924 561.76Z" fill="black"/>
<path d="M443.306 558.88C443.057 558.88 442.827 558.717 442.754 558.467L441.712 554.925C441.623 554.619 441.797 554.3 442.103 554.21C442.406 554.119 442.728 554.293 442.817 554.599L443.858 558.143C443.948 558.448 443.774 558.767 443.469 558.857C443.414 558.873 443.36 558.88 443.306 558.88Z" fill="black"/>
<path d="M447.502 588.87C446.288 588.87 445.272 588.452 444.481 587.626C443.082 586.164 442.458 583.456 442.627 579.578C442.637 579.355 442.776 579.157 442.983 579.072C443.189 578.987 443.426 579.028 443.591 579.179C444.416 579.933 446.836 580.814 450.944 580.814C453.507 580.814 456.329 580.453 459.104 579.774C459.353 579.714 459.605 579.82 459.734 580.035C459.864 580.251 459.84 580.525 459.674 580.713C455.116 585.897 450.68 588.87 447.502 588.87ZM443.752 580.666C443.739 583.624 444.273 585.743 445.312 586.829C447.503 589.114 452.38 586.778 457.591 581.283C452.017 582.376 446.411 582.057 443.752 580.666Z" fill="black"/>
<path d="M445.077 587.833C444.979 587.833 444.88 587.809 444.79 587.757C444.515 587.598 444.419 587.247 444.577 586.971C445.931 584.615 451.429 583.146 454.713 584.259C455.014 584.362 455.176 584.689 455.073 584.989C454.972 585.291 454.643 585.45 454.343 585.35C451.372 584.341 446.579 585.799 445.575 587.544C445.469 587.729 445.276 587.833 445.077 587.833Z" fill="black"/>
<path d="M458.421 603.143C458.083 603.139 457.777 602.906 457.778 602.565C457.779 602.248 458.037 601.992 458.354 601.992C458.379 601.989 458.4 601.992 458.423 601.992C464.255 601.992 473.657 598.627 479.954 595.291C480.235 595.14 480.585 595.248 480.733 595.529C480.882 595.81 480.775 596.159 480.494 596.308C474.07 599.711 464.443 603.143 458.421 603.143Z" fill="black"/>
<path d="M356.81 631.573C359.466 632.51 372.431 632.51 382.899 626.573C384.617 636.102 391.022 664.535 391.022 664.535C399.926 654.849 412.268 643.446 417.893 638.603C423.517 633.76 432.109 629.073 440.545 629.385C448.982 629.697 453.355 629.229 453.355 629.229C453.355 629.229 446.639 641.102 450.075 674.064C453.511 707.028 454.606 711.402 454.606 711.402L443.045 710.309C443.045 710.309 445.388 702.966 438.359 694.531C431.329 686.094 429.298 680.783 428.36 674.534C420.861 682.189 400.865 703.435 384.149 703.591C367.434 703.748 361.496 688.75 359.154 670.003C356.81 651.256 356.81 631.573 356.81 631.573Z" fill="#70BADB"/>
<path d="M485.54 703.387C480.853 704.792 460.697 710.778 451.479 710.153C442.262 709.528 432.733 704.996 425.233 706.872C417.735 708.746 404.872 718.198 405.784 721.946C406.486 724.837 409.924 723.275 409.924 723.275C411.174 725.931 413.673 724.524 413.673 724.524C414.924 727.181 420.704 725.618 424.141 722.65C427.578 719.682 431.795 718.12 437.108 719.994C442.419 721.868 450.699 724.524 460.385 724.993C470.07 725.461 492.881 724.396 492.881 724.396C492.881 724.396 496.318 710.885 485.54 703.387Z" fill="white"/>
<path d="M416.437 726.461C414.799 726.461 413.917 725.877 413.443 725.249C413.126 725.361 412.686 725.472 412.2 725.472C411.435 725.472 410.408 725.201 409.657 723.989C409.25 724.12 408.644 724.272 408.007 724.272C406.557 724.272 405.569 723.494 405.225 722.082C404.137 717.604 417.896 708.112 425.095 706.313C426.357 705.999 427.702 705.844 429.211 705.844C432.834 705.844 436.682 706.733 440.757 707.675C444.292 708.492 447.948 709.336 451.519 709.578C459.629 710.138 476.435 705.516 485.375 702.836C485.543 702.785 485.726 702.814 485.869 702.914C496.849 710.552 493.473 724.401 493.437 724.539C493.375 724.785 493.16 724.96 492.907 724.972C492.752 724.98 477.448 725.688 466.699 725.688H466.698C464.133 725.688 461.999 725.648 460.355 725.568C450.922 725.111 442.873 722.641 436.916 720.538C432.395 718.944 428.36 719.766 424.517 723.087C422.217 725.073 418.894 726.461 416.437 726.461ZM413.674 723.95C413.734 723.95 413.794 723.959 413.85 723.977C414.002 724.026 414.126 724.135 414.194 724.279C414.595 725.13 415.635 725.309 416.436 725.309C418.642 725.309 421.655 724.037 423.764 722.213C427.923 718.621 432.382 717.717 437.298 719.452C443.183 721.528 451.128 723.969 460.412 724.418C462.037 724.496 464.152 724.537 466.698 724.537C476.394 724.537 489.814 723.959 492.409 723.843C492.853 721.571 494.464 710.497 485.436 704.019C476.349 706.734 459.653 711.288 451.44 710.727C447.777 710.478 444.076 709.623 440.498 708.796C436.488 707.87 432.701 706.996 429.209 706.996C427.796 706.996 426.542 707.138 425.372 707.431C417.83 709.316 405.559 718.588 406.343 721.81C406.56 722.704 407.089 723.122 408.006 723.122C408.852 723.122 409.678 722.756 409.686 722.751C409.974 722.626 410.311 722.748 410.443 723.031C410.852 723.899 411.428 724.321 412.198 724.321C412.84 724.321 413.386 724.024 413.392 724.022C413.481 723.974 413.576 723.95 413.674 723.95Z" fill="black"/>
<path d="M556.306 692.342C549.432 673.908 543.496 653.912 537.872 644.851C532.248 635.79 525.53 627.354 513.033 626.104C503.972 625.479 495.848 625.167 495.848 625.167C492.88 632.978 483.35 670.784 488.349 702.498C486.162 702.498 484.599 703.748 484.599 703.748C489.598 707.81 492.41 715.152 491.161 724.994C512.875 726.712 535.841 723.276 543.338 721.401C550.839 719.526 563.179 710.778 556.306 692.342ZM512.251 698.123L513.345 685.002L516.938 697.187L512.251 698.123Z" fill="#70BADB"/>
<path d="M348.423 585.849C348.121 585.849 347.868 585.615 347.848 585.309C347.829 584.993 348.069 584.719 348.387 584.699C349.46 584.631 350.752 584.51 352.159 584.378C356.88 583.931 362.755 583.38 366.268 584.285C366.576 584.364 366.76 584.679 366.681 584.986C366.602 585.293 366.288 585.479 365.98 585.399C362.657 584.542 356.896 585.086 352.267 585.522C350.846 585.656 349.542 585.78 348.458 585.847C348.447 585.849 348.434 585.849 348.423 585.849Z" fill="black"/>
<path d="M428.826 677.765C428.558 677.765 428.318 677.576 428.263 677.302C427.219 672.075 428.386 665.375 430.008 661.053C430.12 660.754 430.454 660.6 430.75 660.716C431.048 660.828 431.199 661.16 431.086 661.458C429.919 664.569 428.249 671.359 429.392 677.077C429.454 677.389 429.253 677.692 428.94 677.754C428.902 677.761 428.864 677.765 428.826 677.765Z" fill="black"/>
<path d="M484.945 703.905C484.69 703.905 484.457 703.734 484.389 703.476C484.309 703.169 484.492 702.853 484.798 702.773C489.851 701.435 521.504 695.225 532.665 694.268C532.977 694.241 533.26 694.476 533.288 694.792C533.314 695.109 533.079 695.389 532.764 695.415C521.65 696.368 490.126 702.553 485.093 703.885C485.043 703.899 484.994 703.905 484.945 703.905Z" fill="black"/>
<path d="M514.125 687.607C513.881 687.607 513.655 687.45 513.576 687.206C512.445 683.673 509.666 672.526 508.33 667.169L507.941 665.613C507.865 665.304 508.052 664.992 508.36 664.914C508.664 664.837 508.981 665.024 509.058 665.333L509.447 666.891C510.779 672.236 513.553 683.359 514.672 686.856C514.768 687.159 514.601 687.484 514.299 687.58C514.242 687.598 514.184 687.607 514.125 687.607Z" fill="black"/>
<path d="M413.675 725.1C413.656 725.1 413.639 725.099 413.622 725.097C413.305 725.069 413.07 724.788 413.1 724.472C413.29 722.38 421.703 715.361 429.293 713.192C429.603 713.1 429.918 713.282 430.005 713.587C430.092 713.893 429.916 714.212 429.61 714.298C421.971 716.481 414.369 723.222 414.246 724.576C414.22 724.875 413.968 725.1 413.675 725.1Z" fill="black"/>
<path d="M409.925 723.851C409.607 723.851 409.349 723.593 409.349 723.275C409.349 720.272 415.654 713.939 425.532 710.852C425.84 710.756 426.158 710.926 426.253 711.229C426.348 711.533 426.18 711.855 425.876 711.951C415.733 715.12 410.502 721.325 410.502 723.275C410.5 723.594 410.244 723.851 409.925 723.851Z" fill="black"/>
<path d="M450.692 722.826H401.359L381.506 664.843C379.773 659.786 373.983 655.65 368.639 655.65H284.39C279.047 655.65 276.092 659.787 277.822 664.843L298.274 724.574C300.511 730.373 300.773 735.146 306.587 735.146H450.693C454.093 735.146 456.853 732.388 456.853 728.984C456.852 725.582 454.093 722.826 450.692 722.826Z" fill="#F2AC30"/>
<path d="M397.009 724.472H299.025C298.708 724.472 298.45 724.214 298.45 723.897C298.45 723.579 298.708 723.321 299.025 723.321H397.009C397.327 723.321 397.585 723.579 397.585 723.897C397.585 724.214 397.327 724.472 397.009 724.472Z" fill="black"/>
<path d="M338.205 703.787C333.948 703.787 329.265 699.563 327.766 694.37C326.906 691.397 327.217 688.624 328.619 686.758C329.649 685.39 331.206 684.635 333.006 684.635C337.266 684.635 341.947 688.861 343.442 694.053C344.302 697.023 343.991 699.798 342.588 701.664C341.559 703.033 340.003 703.787 338.205 703.787ZM333.006 685.787C331.556 685.787 330.358 686.361 329.54 687.449C328.358 689.022 328.115 691.428 328.873 694.05C330.239 698.784 334.427 702.635 338.206 702.635C339.653 702.635 340.851 702.06 341.668 700.972C342.852 699.397 343.096 696.992 342.337 694.372C340.973 689.638 336.787 685.787 333.006 685.787Z" fill="black"/>
<g filter="url(#filter0_d_1_282)">
<path d="M214.79 70.9554L219.904 75.5135C220.733 76.2433 221.393 77.1121 221.845 78.0701C222.296 79.028 222.531 80.0561 222.534 81.0952C222.538 82.1342 222.312 83.1637 221.867 84.1243C221.423 85.0849 220.77 85.9577 219.946 86.6925C219.121 87.4272 218.142 88.0093 217.064 88.4053C215.987 88.8014 214.832 89.0034 213.666 89C212.5 88.9965 211.347 88.7875 210.272 88.385C209.197 87.9826 208.222 87.3946 207.403 86.655L205.7 85.1366C205.47 84.9385 205.286 84.7015 205.159 84.4394C205.033 84.1773 204.966 83.8954 204.963 83.6101C204.96 83.3248 205.021 83.0418 205.142 82.7777C205.263 82.5136 205.442 82.2736 205.668 82.0718C205.895 81.87 206.164 81.7103 206.46 81.6021C206.756 81.494 207.074 81.4395 207.394 81.4418C207.714 81.4442 208.03 81.5033 208.324 81.6158C208.618 81.7283 208.885 81.8919 209.107 82.097L210.814 83.6168C211.568 84.2834 212.589 84.6565 213.651 84.6543C214.714 84.652 215.732 84.2748 216.483 83.605C217.234 82.9353 217.657 82.0275 217.66 81.0805C217.662 80.1334 217.243 79.2242 216.495 78.5517L211.381 73.9937C210.828 73.5008 210.126 73.1624 209.361 73.0199C208.596 72.8774 207.8 72.937 207.072 73.1915C206.812 73.2832 206.571 73.3777 206.343 73.4722L205.597 73.7831C204.601 74.1842 203.834 74.3561 202.859 73.488C201.457 72.2389 201.82 71.0858 203.529 70.0358C205.231 68.9926 207.289 68.5134 209.346 68.6814C211.403 68.8494 213.329 69.6539 214.79 70.9554ZM205.131 62.3465L206.835 63.8649C207.274 64.2699 207.517 64.8126 207.512 65.3759C207.507 65.9393 207.254 66.4783 206.807 66.8769C206.36 67.2755 205.756 67.5017 205.123 67.5069C204.491 67.512 203.882 67.2957 203.427 66.9045L201.722 65.3861C201.352 65.044 200.909 64.7711 200.418 64.5833C199.928 64.3954 199.401 64.2965 198.868 64.2923C198.334 64.288 197.805 64.3785 197.311 64.5584C196.817 64.7383 196.369 65.0041 195.991 65.3403C195.614 65.6764 195.316 66.0762 195.113 66.5162C194.911 66.9563 194.81 67.4278 194.814 67.9033C194.818 68.3788 194.929 68.8488 195.14 69.2857C195.35 69.7227 195.656 70.1179 196.04 70.4484L201.153 75.0064C201.706 75.4993 202.408 75.8377 203.174 75.9802C203.939 76.1227 204.734 76.063 205.462 75.8086C205.722 75.7169 205.963 75.6223 206.192 75.5278L206.937 75.217C207.934 74.8159 208.702 74.644 209.676 75.512C211.077 76.7611 210.714 77.9142 209.006 78.9642C207.304 80.0074 205.246 80.4866 203.189 80.3186C201.132 80.1506 199.206 79.3461 197.745 78.0446L192.631 73.4866C191.801 72.7568 191.141 71.8879 190.69 70.93C190.238 69.972 190.004 68.9439 190 67.9049C189.996 66.8658 190.223 65.8364 190.667 64.8757C191.111 63.9151 191.765 63.0423 192.589 62.3076C193.413 61.5729 194.392 60.9907 195.47 60.5947C196.548 60.1987 197.703 59.9966 198.869 60.0001C200.034 60.0036 201.188 60.2125 202.263 60.615C203.337 61.0174 204.312 61.6068 205.131 62.3465Z" fill="white"/>
<path d="M216.755 66.903L221.869 62.345C222.688 61.6054 223.663 61.0174 224.737 60.615C225.812 60.2125 226.966 60.0035 228.131 60C229.297 59.9966 230.452 60.1987 231.53 60.5947C232.608 60.9907 233.587 61.5728 234.411 62.3075C235.235 63.0423 235.889 63.9151 236.333 64.8757C236.777 65.8363 237.004 66.8658 237 67.9048C236.996 68.9439 236.762 69.972 236.31 70.9299C235.859 71.8879 235.199 72.7567 234.369 73.4865L232.666 75.0049C232.443 75.2102 232.177 75.374 231.883 75.4868C231.589 75.5995 231.273 75.6589 230.953 75.6615C230.633 75.6641 230.315 75.6099 230.019 75.502C229.723 75.3941 229.453 75.2346 229.227 75.033C229.001 74.8313 228.821 74.5915 228.7 74.3275C228.579 74.0635 228.518 73.7806 228.52 73.4953C228.523 73.21 228.589 72.928 228.715 72.6658C228.842 72.4036 229.025 72.1664 229.255 71.9681L230.96 70.4469C231.708 69.7742 232.127 68.8648 232.124 67.9178C232.122 66.9707 231.699 66.0631 230.947 65.3935C230.196 64.724 229.177 64.347 228.115 64.345C227.052 64.3431 226.032 64.7164 225.278 65.3832L220.164 69.9412C219.611 70.4339 219.231 71.0596 219.071 71.7418C218.911 72.4239 218.978 73.1328 219.264 73.7816C219.367 74.0137 219.473 74.2285 219.579 74.4319L219.928 75.0966C220.378 75.9847 220.57 76.668 219.597 77.5375C218.195 78.7866 216.901 78.4628 215.723 76.9401C214.553 75.4231 214.015 73.5888 214.204 71.7554C214.392 69.922 215.295 68.2052 216.755 66.903ZM207.096 75.512L208.8 73.9936C209.254 73.602 211.867 71.455 212.5 71.4596C213.132 71.4642 212.856 72.4937 213.303 72.8919C213.75 73.2901 214.904 73.7611 214.91 74.3245C214.916 74.8878 212.649 76.625 212.21 77.0304L210.507 78.5502C210.123 78.8805 209.817 79.2755 209.606 79.7124C209.395 80.1492 209.284 80.6191 209.28 81.0946C209.275 81.5701 209.376 82.0417 209.578 82.4819C209.78 82.922 210.078 83.3219 210.455 83.6583C210.832 83.9946 211.281 84.2606 211.775 84.4408C212.268 84.621 212.797 84.7117 213.331 84.7077C213.864 84.7037 214.392 84.6051 214.882 84.4175C215.372 84.23 215.816 83.9573 216.186 83.6153L221.3 79.0573C221.853 78.5646 222.233 77.9389 222.393 77.2567C222.552 76.5746 222.486 75.8657 222.2 75.2169C222.097 74.9849 221.991 74.77 221.885 74.5666L221.536 73.9019C221.086 73.0138 220.893 72.3291 221.867 71.4611C223.269 70.212 224.562 70.5357 225.741 72.0584C226.911 73.5754 227.449 75.4098 227.26 77.2432C227.072 79.0766 226.169 80.7933 224.709 82.0955L219.595 86.6535C218.776 87.3932 217.801 87.9811 216.727 88.3836C215.652 88.786 214.498 88.995 213.333 88.9985C212.167 89.002 211.012 88.7999 209.934 88.4039C208.856 88.0078 207.877 87.4257 207.053 86.691C206.229 85.9563 205.575 85.0835 205.131 84.1228C204.687 83.1622 204.46 82.1327 204.464 81.0937C204.468 80.0547 204.702 79.0266 205.154 78.0686C205.605 77.1107 206.267 76.2418 207.096 75.512Z" fill="white"/>
</g>
<g filter="url(#filter1_d_1_282)">
<path d="M72.96 88.48C70.7733 88.48 68.76 87.9733 66.92 86.96C65.08 85.9467 63.6 84.4533 62.48 82.48C61.3867 80.48 60.84 78.0267 60.84 75.12C60.84 72.24 61.4 69.7867 62.52 67.76C63.6667 65.7067 65.1733 64.1467 67.04 63.08C68.9333 61.9867 70.9733 61.44 73.16 61.44C74.84 61.44 76.3467 61.7867 77.68 62.48C79.0133 63.1467 80.12 63.9333 81 64.84L77.88 68.6C77.2133 67.9867 76.5067 67.4933 75.76 67.12C75.04 66.72 74.2133 66.52 73.28 66.52C72.1067 66.52 71.0267 66.8533 70.04 67.52C69.08 68.1867 68.3067 69.1467 67.72 70.4C67.16 71.6533 66.88 73.16 66.88 74.92C66.88 77.5867 67.4533 79.6667 68.6 81.16C69.7467 82.6533 71.28 83.4 73.2 83.4C74.2667 83.4 75.2133 83.16 76.04 82.68C76.8933 82.2 77.64 81.6267 78.28 80.96L81.4 84.64C79.2133 87.2 76.4 88.48 72.96 88.48ZM84.0013 88V59.96H89.8813V66.84L89.6013 70.4C90.3479 69.7333 91.2146 69.12 92.2013 68.56C93.2146 67.9733 94.3879 67.68 95.7213 67.68C97.8813 67.68 99.4413 68.4 100.401 69.84C101.388 71.2533 101.881 73.2 101.881 75.68V88H96.0013V76.44C96.0013 75 95.8013 74.0133 95.4013 73.48C95.0279 72.9467 94.4146 72.68 93.5613 72.68C92.8146 72.68 92.1746 72.8533 91.6413 73.2C91.1079 73.52 90.5213 73.9867 89.8813 74.6V88H84.0013ZM110.973 88.48C109.159 88.48 107.719 87.9067 106.653 86.76C105.586 85.5867 105.053 84.16 105.053 82.48C105.053 80.4 105.933 78.7733 107.693 77.6C109.453 76.4267 112.293 75.64 116.213 75.24C116.159 74.36 115.893 73.6667 115.413 73.16C114.959 72.6267 114.186 72.36 113.093 72.36C112.266 72.36 111.426 72.52 110.573 72.84C109.719 73.16 108.813 73.6 107.853 74.16L105.733 70.28C106.986 69.5067 108.319 68.88 109.733 68.4C111.173 67.92 112.666 67.68 114.213 67.68C116.746 67.68 118.693 68.4133 120.053 69.88C121.413 71.3467 122.093 73.6 122.093 76.64V88H117.293L116.893 85.96H116.733C115.906 86.7067 115.013 87.32 114.053 87.8C113.119 88.2533 112.093 88.48 110.973 88.48ZM112.973 83.92C113.639 83.92 114.213 83.7733 114.693 83.48C115.199 83.16 115.706 82.7467 116.213 82.24V78.76C114.133 79.0267 112.693 79.4533 111.893 80.04C111.093 80.6 110.693 81.2667 110.693 82.04C110.693 82.68 110.893 83.16 111.293 83.48C111.719 83.7733 112.279 83.92 112.973 83.92ZM133.123 88.48C130.67 88.48 128.91 87.7733 127.843 86.36C126.803 84.9467 126.283 83.0933 126.283 80.8V72.76H123.563V68.4L126.603 68.16L127.283 62.88H132.163V68.16H136.923V72.76H132.163V80.72C132.163 81.84 132.39 82.6533 132.843 83.16C133.323 83.64 133.95 83.88 134.723 83.88C135.043 83.88 135.363 83.84 135.683 83.76C136.03 83.68 136.337 83.5867 136.603 83.48L137.523 87.76C137.017 87.92 136.39 88.08 135.643 88.24C134.923 88.4 134.083 88.48 133.123 88.48ZM139.916 88V68.16H145.796V88H139.916ZM142.836 65.24C141.849 65.24 141.049 64.96 140.436 64.4C139.823 63.84 139.516 63.0933 139.516 62.16C139.516 61.2267 139.823 60.48 140.436 59.92C141.049 59.36 141.849 59.08 142.836 59.08C143.823 59.08 144.623 59.36 145.236 59.92C145.849 60.48 146.156 61.2267 146.156 62.16C146.156 63.0933 145.849 63.84 145.236 64.4C144.623 64.96 143.823 65.24 142.836 65.24ZM151.091 88V72.76H148.451V68.4L151.091 68.2V67.12C151.091 65.7067 151.331 64.4267 151.811 63.28C152.291 62.1333 153.064 61.2133 154.131 60.52C155.197 59.8267 156.624 59.48 158.411 59.48C159.237 59.48 159.997 59.56 160.691 59.72C161.384 59.88 161.944 60.04 162.371 60.2L161.291 64.52C160.944 64.3867 160.597 64.2933 160.251 64.24C159.904 64.16 159.571 64.12 159.251 64.12C158.531 64.12 157.971 64.3467 157.571 64.8C157.171 65.2267 156.971 65.9467 156.971 66.96V68.16H160.531V72.76H156.971V88H151.091ZM165.043 95.76C164.457 95.76 163.937 95.72 163.483 95.64C163.057 95.56 162.643 95.4667 162.243 95.36L163.283 90.88C163.47 90.9067 163.683 90.9467 163.923 91C164.163 91.08 164.39 91.12 164.603 91.12C165.59 91.12 166.35 90.88 166.883 90.4C167.417 89.92 167.817 89.2933 168.083 88.52L168.363 87.48L160.723 68.16H166.643L169.483 76.68C169.777 77.5867 170.043 78.5067 170.283 79.44C170.523 80.3733 170.777 81.3333 171.043 82.32H171.203C171.417 81.3867 171.63 80.4533 171.843 79.52C172.083 78.56 172.323 77.6133 172.563 76.68L174.963 68.16H180.603L173.723 88.2C173.11 89.8533 172.43 91.24 171.683 92.36C170.937 93.5067 170.03 94.36 168.963 94.92C167.923 95.48 166.617 95.76 165.043 95.76Z" fill="white"/>
</g>
<defs>
<filter id="filter0_d_1_282" x="186" y="60" width="55" height="43" filterUnits="userSpaceOnUse" color-interpolation-filters="sRGB">
<feFlood flood-opacity="0" result="BackgroundImageFix"/>
<feColorMatrix in="SourceAlpha" type="matrix" values="0 0 0 0 0 0 0 0 0 0 0 0 0 0 0 0 0 0 127 0" result="hardAlpha"/>
<feOffset dy="10"/>
<feGaussianBlur stdDeviation="2"/>
<feComposite in2="hardAlpha" operator="out"/>
<feColorMatrix type="matrix" values="0 0 0 0 0 0 0 0 0 0 0 0 0 0 0 0 0 0 0.25 0"/>
<feBlend mode="normal" in2="BackgroundImageFix" result="effect1_dropShadow_1_282"/>
<feBlend mode="normal" in="SourceGraphic" in2="effect1_dropShadow_1_282" result="shape"/>
</filter>
<filter id="filter1_d_1_282" x="56.8401" y="59.08" width="127.763" height="44.6801" filterUnits="userSpaceOnUse" color-interpolation-filters="sRGB">
<feFlood flood-opacity="0" result="BackgroundImageFix"/>
<feColorMatrix in="SourceAlpha" type="matrix" values="0 0 0 0 0 0 0 0 0 0 0 0 0 0 0 0 0 0 127 0" result="hardAlpha"/>
<feOffset dy="4"/>
<feGaussianBlur stdDeviation="2"/>
<feComposite in2="hardAlpha" operator="out"/>
<feColorMatrix type="matrix" values="0 0 0 0 0 0 0 0 0 0 0 0 0 0 0 0 0 0 0.25 0"/>
<feBlend mode="normal" in2="BackgroundImageFix" result="effect1_dropShadow_1_282"/>
<feBlend mode="normal" in="SourceGraphic" in2="effect1_dropShadow_1_282" result="shape"/>
</filter>
</defs>
</svg>
