<svg width="31" height="30" viewBox="0 0 31 30" fill="none" xmlns="http://www.w3.org/2000/svg">
<path d="M15.1953 28.5L15.1946 28.8488C15.1951 28.8488 15.1955 28.8488 15.196 28.8488H15.1973V28.5M15.1953 28.5C15.1959 28.5 15.1966 28.5 15.1973 28.5M15.1953 28.5L15.1973 27.3488M15.1953 28.5C13.31 28.4997 11.5155 28.1247 9.88312 27.4469C9.88307 27.4468 9.88302 27.4468 9.88296 27.4468L15.1973 27.3488M15.1973 28.5V27.3488M15.1973 28.5C17.0828 28.5 18.8781 28.1249 20.5115 27.4466M15.1973 27.3488L20.6437 27.7635L20.5115 27.4466M20.5115 27.4466L20.0662 26.3791L20.6439 27.7634L20.5117 27.4466C20.5116 27.4466 20.5116 27.4466 20.5115 27.4466ZM30.7222 15.0007L30.7212 15.0012L30.7222 15.0007ZM30.7222 15.0007L30.7236 15L30.7222 15.0007ZM26.9224 15.2442V14.7558V13.7442V13.5872L28.7342 15L26.9224 16.4128V16.2558V15.2442Z" fill="white" stroke="white" stroke-width="3"/>
</svg>
