<svg width="29" height="30" viewBox="0 0 29 30" fill="none" xmlns="http://www.w3.org/2000/svg">
<path d="M25.6845 15C25.6845 14.655 25.6696 14.325 25.6397 13.98L28.4135 11.865C29.01 11.415 29.174 10.575 28.8012 9.915L26.0126 5.07C25.8337 4.75228 25.5445 4.51221 25.2005 4.39593C24.8564 4.27964 24.4817 4.29534 24.1485 4.44L20.9423 5.805C20.3905 5.415 19.8089 5.07 19.1975 4.785L18.765 1.32C18.6755 0.57 18.0343 0 17.2887 0H11.7263C10.9657 0 10.3245 0.57 10.235 1.32L9.80252 4.785C9.1911 5.07 8.60951 5.415 8.05774 5.805L4.85153 4.44C4.16554 4.14 3.36026 4.41 2.98745 5.07L0.198782 9.93C-0.174034 10.59 -0.00999451 11.415 0.586511 11.88L3.36026 13.995C3.29844 14.6686 3.29844 15.3464 3.36026 16.02L0.586511 18.135C-0.00999451 18.585 -0.174034 19.425 0.198782 20.085L2.98745 24.93C3.36026 25.59 4.16554 25.86 4.85153 25.56L8.05774 24.195C8.60951 24.585 9.1911 24.93 9.80252 25.215L10.235 28.68C10.3245 29.43 10.9657 30 11.7113 30H17.2738C18.0194 30 18.6606 29.43 18.7501 28.68L19.1826 25.215C19.794 24.93 20.3756 24.585 20.9273 24.195L24.1336 25.56C24.8195 25.86 25.6248 25.59 25.9976 24.93L28.7863 20.085C29.1591 19.425 28.9951 18.6 28.3986 18.135L25.6248 16.02C25.6696 15.675 25.6845 15.345 25.6845 15ZM14.5597 20.25C11.6815 20.25 9.34023 17.895 9.34023 15C9.34023 12.105 11.6815 9.75 14.5597 9.75C17.4378 9.75 19.7791 12.105 19.7791 15C19.7791 17.895 17.4378 20.25 14.5597 20.25Z" fill="white"/>
</svg>
