<svg width="55" height="43" viewBox="0 0 55 43" fill="none" xmlns="http://www.w3.org/2000/svg">
<g filter="url(#filter0_d_1_1471)">
<path d="M28.7897 10.9554L33.9035 15.5135C34.7334 16.2433 35.393 17.1121 35.8445 18.0701C36.2961 19.028 36.5305 20.0561 36.5344 21.0952C36.5383 22.1342 36.3116 23.1637 35.8673 24.1243C35.423 25.0849 34.7699 25.9577 33.9456 26.6925C33.1213 27.4272 32.142 28.0093 31.0643 28.4053C29.9865 28.8014 28.8315 29.0034 27.6658 29C26.5 28.9965 25.3466 28.7875 24.2718 28.385C23.1971 27.9826 22.2222 27.3946 21.4035 26.655L19.6999 25.1366C19.4696 24.9385 19.2858 24.7015 19.1593 24.4394C19.0329 24.1773 18.9662 23.8954 18.9633 23.6101C18.9603 23.3248 19.0212 23.0418 19.1423 22.7777C19.2633 22.5136 19.4422 22.2736 19.6684 22.0718C19.8947 21.87 20.1637 21.7103 20.4599 21.6021C20.7561 21.494 21.0736 21.4395 21.3936 21.4418C21.7137 21.4442 22.0301 21.5033 22.3243 21.6158C22.6184 21.7283 22.8845 21.8919 23.107 22.097L24.8137 23.6168C25.5685 24.2834 26.5887 24.6565 27.6512 24.6543C28.7138 24.652 29.732 24.2748 30.4833 23.605C31.2345 22.9353 31.6575 22.0275 31.6596 21.0805C31.6618 20.1334 31.243 19.2242 30.4949 18.5517L25.3811 13.9937C24.8283 13.5008 24.1263 13.1624 23.3609 13.0199C22.5956 12.8774 21.8003 12.937 21.0724 13.1915C20.812 13.2832 20.571 13.3777 20.3428 13.4722L19.5971 13.7831C18.6007 14.1842 17.8341 14.3561 16.8586 13.488C15.4572 12.2389 15.8204 11.0858 17.5287 10.0358C19.2307 8.99262 21.2888 8.51344 23.3457 8.68143C25.4027 8.84941 27.3288 9.65395 28.7897 10.9554ZM19.131 2.34647L20.8345 3.86486C21.2739 4.26991 21.5172 4.81257 21.512 5.37595C21.5068 5.93932 21.2535 6.47834 20.8068 6.87691C20.36 7.27548 19.7555 7.50171 19.1235 7.50687C18.4914 7.51203 17.8823 7.29571 17.4275 6.9045L15.7223 5.38611C15.3518 5.04398 14.9086 4.77106 14.4184 4.58325C13.9283 4.39545 13.4011 4.29653 12.8677 4.29226C12.3342 4.288 11.8051 4.37847 11.3113 4.55841C10.8175 4.73834 10.3688 5.00414 9.99143 5.34028C9.61409 5.67643 9.31563 6.07619 9.11347 6.51624C8.91131 6.95629 8.80951 7.42783 8.81399 7.90332C8.81848 8.37882 8.92916 8.84876 9.13959 9.28572C9.35002 9.72268 9.65597 10.1179 10.0396 10.4484L15.1534 15.0064C15.7061 15.4993 16.4082 15.8377 17.1735 15.9802C17.9389 16.1227 18.7342 16.063 19.4621 15.8086C19.7224 15.7169 19.9635 15.6223 20.1917 15.5278L20.9374 15.217C21.9338 14.8159 22.702 14.644 23.6759 15.512C25.0773 16.7611 24.7141 17.9142 23.0057 18.9642C21.3038 20.0074 19.2457 20.4866 17.1888 20.3186C15.1318 20.1506 13.2057 19.3461 11.7447 18.0446L6.63093 13.4866C5.80111 12.7568 5.14146 11.8879 4.68994 10.93C4.23842 9.97201 4.00396 8.94392 4.00005 7.90487C3.99614 6.86582 4.22287 5.83635 4.66718 4.87573C5.11149 3.9151 5.7646 3.0423 6.58891 2.30758C7.41322 1.57286 8.39244 0.990734 9.4702 0.594714C10.548 0.198695 11.703 -0.00339251 12.8687 8.84298e-05C14.0344 0.00356937 15.1879 0.21255 16.2627 0.614997C17.3374 1.01744 18.3122 1.60684 19.131 2.34647Z" fill="white"/>
<path d="M30.7552 6.90302L35.869 2.34499C36.6878 1.60536 37.6626 1.0174 38.7373 0.614951C39.8121 0.212504 40.9656 0.00352516 42.1313 4.42149e-05C43.297 -0.00343673 44.452 0.198651 45.5298 0.59467C46.6076 0.99069 47.5868 1.57282 48.4111 2.30754C49.2354 3.04226 49.8885 3.91506 50.3328 4.87568C50.7771 5.83631 51.0039 6.86578 51 7.90482C50.996 8.94387 50.7616 9.97197 50.3101 10.9299C49.8585 11.8879 49.1989 12.7567 48.3691 13.4865L46.6655 15.0049C46.4433 15.2102 46.1774 15.374 45.8833 15.4868C45.5893 15.5995 45.273 15.6589 44.9529 15.6615C44.6328 15.6641 44.3153 15.6099 44.019 15.502C43.7227 15.3941 43.4535 15.2346 43.227 15.033C43.0006 14.8313 42.8214 14.5915 42.7001 14.3275C42.5787 14.0635 42.5176 13.7806 42.5202 13.4953C42.5228 13.21 42.5892 12.928 42.7154 12.6658C42.8416 12.4036 43.0251 12.1664 43.2553 11.9681L44.9604 10.4469C45.7083 9.77419 46.1268 8.86483 46.1244 7.91778C46.1219 6.97073 45.6986 6.06312 44.9472 5.39355C44.1958 4.72397 43.1773 4.34697 42.1148 4.34503C41.0523 4.34309 40.0322 4.71637 39.2777 5.3832L34.1638 9.94123C33.6109 10.4339 33.2312 11.0596 33.0713 11.7418C32.9115 12.4239 32.9784 13.1328 33.2639 13.7816C33.3667 14.0137 33.4728 14.2285 33.5789 14.4319L33.9276 15.0966C34.3776 15.9847 34.5704 16.668 33.5965 17.5375C32.1951 18.7866 30.9014 18.4628 29.7234 16.9401C28.553 15.4231 28.0154 13.5888 28.2039 11.7554C28.3923 9.92195 29.295 8.20521 30.7552 6.90302ZM21.0965 15.512L22.8 13.9936C23.2544 13.602 25.8674 11.455 26.4995 11.4596C27.1316 11.4642 26.8558 12.4937 27.303 12.8919C27.7502 13.2901 28.9044 13.7611 28.9102 14.3245C28.916 14.8878 26.6492 16.625 26.2103 17.0304L24.5067 18.5502C24.1229 18.8805 23.8167 19.2755 23.606 19.7124C23.3953 20.1492 23.2843 20.6191 23.2795 21.0946C23.2747 21.5701 23.3762 22.0417 23.5781 22.4819C23.78 22.922 24.0782 23.3219 24.4553 23.6583C24.8325 23.9946 25.281 24.2606 25.7747 24.4408C26.2684 24.621 26.7974 24.7117 27.3309 24.7077C27.8644 24.7037 28.3916 24.6051 28.8818 24.4175C29.3721 24.23 29.8155 23.9573 30.1863 23.6153L35.3001 19.0573C35.853 18.5646 36.2327 17.9389 36.3926 17.2567C36.5524 16.5746 36.4855 15.8657 36.2001 15.2169C36.0972 14.9849 35.9911 14.77 35.8851 14.5666L35.5363 13.9019C35.0863 13.0138 34.8935 12.3291 35.8674 11.4611C37.2688 10.212 38.5625 10.5357 39.7405 12.0584C40.9109 13.5754 41.4485 15.4098 41.2601 17.2432C41.0716 19.0766 40.1689 20.7933 38.7087 22.0955L33.5949 26.6535C32.7762 27.3932 31.8013 27.9811 30.7266 28.3836C29.6518 28.786 28.4984 28.995 27.3326 28.9985C26.1669 29.002 25.0119 28.7999 23.9341 28.4039C22.8564 28.0078 21.8771 27.4257 21.0528 26.691C20.2285 25.9563 19.5754 25.0835 19.1311 24.1228C18.6868 23.1622 18.4601 22.1327 18.464 21.0937C18.4679 20.0547 18.7023 19.0266 19.1539 18.0686C19.6054 17.1107 20.2666 16.2418 21.0965 15.512Z" fill="white"/>
</g>
<defs>
<filter id="filter0_d_1_1471" x="0" y="0" width="55" height="43" filterUnits="userSpaceOnUse" color-interpolation-filters="sRGB">
<feFlood flood-opacity="0" result="BackgroundImageFix"/>
<feColorMatrix in="SourceAlpha" type="matrix" values="0 0 0 0 0 0 0 0 0 0 0 0 0 0 0 0 0 0 127 0" result="hardAlpha"/>
<feOffset dy="10"/>
<feGaussianBlur stdDeviation="2"/>
<feComposite in2="hardAlpha" operator="out"/>
<feColorMatrix type="matrix" values="0 0 0 0 0 0 0 0 0 0 0 0 0 0 0 0 0 0 0.25 0"/>
<feBlend mode="normal" in2="BackgroundImageFix" result="effect1_dropShadow_1_1471"/>
<feBlend mode="normal" in="SourceGraphic" in2="effect1_dropShadow_1_1471" result="shape"/>
</filter>
</defs>
</svg>
