<svg width="159" height="108" viewBox="0 0 159 108" fill="none" xmlns="http://www.w3.org/2000/svg">
<g filter="url(#filter0_d_1_226)">
<path d="M83.6436 35.5108L100.073 50.2851C102.739 52.6506 104.858 55.4669 106.309 58.572C107.76 61.6771 108.513 65.0095 108.525 68.3775C108.538 71.7454 107.81 75.0823 106.382 78.1961C104.955 81.3098 102.856 84.1389 100.208 86.5204C97.5598 88.9019 94.4137 90.7888 90.9512 92.0724C87.4886 93.3561 83.7778 94.0111 80.0326 93.9999C76.2873 93.9886 72.5815 93.3112 69.1286 92.0067C65.6757 90.7022 62.5438 88.7964 59.9132 86.399L54.4402 81.4773C53.7001 80.8352 53.1097 80.0669 52.7034 79.2174C52.297 78.3678 52.0829 77.454 52.0735 76.5293C52.0641 75.6045 52.2596 74.6873 52.6485 73.8313C53.0375 72.9752 53.6122 72.1973 54.339 71.5431C55.0659 70.8888 55.9303 70.3713 56.882 70.0207C57.8336 69.6702 58.8533 69.4935 59.8817 69.5011C60.9101 69.5087 61.9264 69.7004 62.8715 70.065C63.8166 70.4296 64.6715 70.9598 65.3863 71.6247L70.8697 76.551C73.2944 78.7118 76.5722 79.9209 79.9859 79.9138C83.3995 79.9066 86.671 78.6838 89.0845 76.5128C91.498 74.3419 92.8569 71.3996 92.8639 68.3299C92.8709 65.2601 91.5254 62.3129 89.1218 60.133L72.6923 45.3587C70.9165 43.7612 68.661 42.6642 66.2022 42.2024C63.7433 41.7405 61.1881 41.9338 58.8496 42.7586C58.0132 43.0558 57.2387 43.3622 56.5055 43.6687L54.1097 44.6762C50.9085 45.9763 48.4456 46.5334 45.3116 43.7197C40.8092 39.671 41.9761 35.9333 47.4646 32.5299C52.9327 29.1485 59.5447 27.5953 66.1533 28.1398C72.7618 28.6843 78.9498 31.2921 83.6436 35.5108ZM52.6124 7.60579L58.0855 12.5275C59.497 13.8404 60.2785 15.5994 60.2618 17.4255C60.2452 19.2516 59.4316 20.9988 57.9963 22.2907C56.561 23.5826 54.6188 24.3159 52.5881 24.3326C50.5575 24.3493 48.6007 23.6482 47.1393 22.3801L41.6611 17.4584C40.4707 16.3495 39.0467 15.4648 37.472 14.8561C35.8974 14.2473 34.2037 13.9267 32.4897 13.9128C30.7758 13.899 29.076 14.1923 27.4894 14.7755C25.9029 15.3588 24.4614 16.2203 23.2491 17.3099C22.0367 18.3995 21.0779 19.6952 20.4284 21.1216C19.7789 22.548 19.4518 24.0764 19.4662 25.6177C19.4806 27.1589 19.8362 28.6822 20.5123 30.0985C21.1883 31.5149 22.1713 32.796 23.4038 33.8671L39.8333 48.6414C41.6091 50.239 43.8647 51.3359 46.3235 51.7978C48.7823 52.2596 51.3376 52.0663 53.676 51.2415C54.5125 50.9444 55.287 50.6379 56.0202 50.3315L58.4159 49.3239C61.6171 48.0239 64.0852 47.4667 67.2141 50.2804C71.7165 54.3292 70.5496 58.0669 65.061 61.4703C59.5929 64.8516 52.9809 66.4048 46.3724 65.8604C39.7638 65.3159 33.5758 62.708 28.8821 58.4894L12.4526 43.7151C9.78656 41.3496 7.66723 38.5332 6.21661 35.4282C4.76598 32.3231 4.01271 28.9906 4.00016 25.6227C3.98761 22.2547 4.71604 18.9178 6.1435 15.8041C7.57096 12.6903 9.66925 9.86126 12.3176 7.47975C14.9659 5.09824 18.1119 3.21134 21.5745 1.92769C25.0371 0.644045 28.7478 -0.0109964 32.4931 0.000286635C36.2383 0.0115697 39.9441 0.688954 43.3971 1.99344C46.85 3.29792 49.9819 5.20838 52.6124 7.60579Z" fill="#6D00DB"/>
<path d="M89.9581 22.3753L106.388 7.601C109.018 5.20359 112.15 3.29777 115.603 1.99329C119.056 0.688806 122.762 0.0114264 126.507 0.000143317C130.252 -0.0111397 133.963 0.643902 137.426 1.92755C140.888 3.2112 144.034 5.0981 146.682 7.47961C149.331 9.86112 151.429 12.6902 152.857 15.8039C154.284 18.9177 155.012 22.2546 155 25.6225C154.987 28.9905 154.234 32.3229 152.783 35.428C151.333 38.5331 149.213 41.3494 146.547 43.7149L141.074 48.6366C140.36 49.3021 139.506 49.833 138.561 50.1984C137.617 50.5638 136.6 50.7564 135.572 50.7649C134.544 50.7733 133.524 50.5975 132.572 50.2478C131.62 49.898 130.755 49.3812 130.027 48.7276C129.3 48.074 128.724 47.2966 128.334 46.4408C127.944 45.5851 127.748 44.6681 127.756 43.7433C127.765 42.8186 127.978 41.9046 128.384 41.0547C128.789 40.2048 129.379 39.436 130.118 38.7933L135.596 33.8623C137.999 31.6819 139.344 28.7343 139.336 25.6645C139.328 22.5948 137.968 19.6529 135.554 17.4825C133.14 15.3122 129.868 14.0902 126.454 14.0839C123.04 14.0776 119.763 15.2876 117.339 17.449L100.909 32.2233C99.1328 33.8202 97.913 35.8485 97.3994 38.0596C96.8858 40.2707 97.1008 42.5685 98.018 44.6714C98.3484 45.4236 98.6892 46.1201 99.03 46.7794L100.15 48.9338C101.596 51.8125 102.216 54.0272 99.0868 56.8456C94.5844 60.8944 90.428 59.845 86.6433 54.9094C82.8831 49.9922 81.1559 44.0463 81.7614 38.1036C82.3669 32.1608 85.2668 26.5962 89.9581 22.3753ZM58.9269 50.2803L64.4 45.3586C65.86 44.0893 74.255 37.1298 76.2857 37.1448C78.3164 37.1599 77.4305 40.497 78.8671 41.7877C80.3038 43.0784 84.0119 44.6049 84.0305 46.431C84.0491 48.2571 76.7665 53.8878 75.3564 55.2019L69.8833 60.1283C68.6502 61.1987 67.6664 62.4793 66.9894 63.8953C66.3125 65.3113 65.9559 66.8344 65.9406 68.3757C65.9252 69.9169 66.2513 71.4455 66.8999 72.8722C67.5485 74.2989 68.5065 75.5952 69.7182 76.6854C70.9298 77.7756 72.3707 78.6379 73.9569 79.2219C75.5431 79.806 77.2427 80.1001 78.9567 80.0871C80.6706 80.0742 82.3645 79.7544 83.9396 79.1464C85.5146 78.5385 86.9392 77.6546 88.1303 76.5462L104.56 61.7719C106.336 60.175 107.556 58.1467 108.07 55.9356C108.583 53.7245 108.368 51.4267 107.451 49.3238C107.121 48.5716 106.78 47.8751 106.439 47.2158L105.319 45.0614C103.873 42.1827 103.254 39.9633 106.382 37.1496C110.885 33.1008 115.041 34.1502 118.826 39.0858C122.586 44.003 124.313 49.9489 123.708 55.8916C123.102 61.8344 120.202 67.399 115.511 71.6199L99.0816 86.3942C96.4511 88.7916 93.3192 90.6974 89.8662 92.0019C86.4133 93.3064 82.7075 93.9838 78.9623 93.9951C75.217 94.0063 71.5062 93.3513 68.0437 92.0677C64.5811 90.784 61.4351 88.8971 58.7868 86.5156C56.1384 84.1341 54.0401 81.305 52.6127 78.1913C51.1852 75.0775 50.4568 71.7406 50.4693 68.3727C50.4819 65.0047 51.2352 61.6723 52.6858 58.5672C54.1364 55.4621 56.2609 52.6458 58.9269 50.2803Z" fill="#6D00DB"/>
</g>
<defs>
<filter id="filter0_d_1_226" x="0" y="0" width="159" height="108" filterUnits="userSpaceOnUse" color-interpolation-filters="sRGB">
<feFlood flood-opacity="0" result="BackgroundImageFix"/>
<feColorMatrix in="SourceAlpha" type="matrix" values="0 0 0 0 0 0 0 0 0 0 0 0 0 0 0 0 0 0 127 0" result="hardAlpha"/>
<feOffset dy="10"/>
<feGaussianBlur stdDeviation="2"/>
<feComposite in2="hardAlpha" operator="out"/>
<feColorMatrix type="matrix" values="0 0 0 0 0 0 0 0 0 0 0 0 0 0 0 0 0 0 0.25 0"/>
<feBlend mode="normal" in2="BackgroundImageFix" result="effect1_dropShadow_1_226"/>
<feBlend mode="normal" in="SourceGraphic" in2="effect1_dropShadow_1_226" result="shape"/>
</filter>
</defs>
</svg>
